M48
; DRILL file {KiCad (5.1.5)-3} date 01/12/21 12:00:43
; FORMAT={-:-/ absolute / metric / decimal}
; #@! TF.CreationDate,2021-01-12T12:00:43+01:00
; #@! TF.GenerationSoftware,Kicad,Pcbnew,(5.1.5)-3
FMAT,2
METRIC
T1C0.400
T2C1.000
T3C2.790
T4C2.100
%
G90
G05
T1
X123.875Y-83.95
X125.05Y-87.975
X129.981Y-69.672
X130.057Y-72.378
X130.171Y-67.157
X133.982Y-69.749
X134.058Y-72.912
X134.173Y-67.005
X136.025Y-110.7
X136.1Y-101.5
X139.275Y-62.7
X146.578Y-101.888
X148.85Y-97.525
X149.974Y-109.191
X149.983Y-110.742
X151.586Y-109.194
X151.592Y-110.752
X151.593Y-96.948
X152.825Y-103.7
X153.796Y-96.353
X156.1Y-84.375
X156.218Y-105.94
X156.325Y-101.35
X171.438Y-102.438
X183.2Y-96.534
T2
X197.6Y-97.86
X197.6Y-100.4
X197.6Y-102.94
X197.6Y-105.48
X197.6Y-108.02
X197.6Y-110.56
X197.6Y-113.1
X197.6Y-115.64
X197.6Y-118.18
X183.2Y-71.2
X184.996Y-72.996
X186.792Y-74.792
X188.588Y-76.588
X108.8Y-86.82
X108.8Y-89.36
X108.8Y-91.9
X108.8Y-94.44
X108.8Y-96.98
X108.8Y-99.52
X108.8Y-102.06
X108.8Y-104.6
X108.8Y-107.14
X108.8Y-109.68
X108.8Y-112.22
X108.8Y-114.76
X108.8Y-117.3
X108.8Y-119.84
X108.8Y-122.38
X108.8Y-124.92
X108.8Y-127.46
X108.8Y-130.0
X108.8Y-132.54
X132.4Y-86.8
X132.4Y-89.34
X132.4Y-91.88
X132.4Y-94.42
X132.4Y-96.96
X132.4Y-99.5
X132.4Y-102.04
X132.4Y-104.58
X132.4Y-107.12
X132.4Y-109.66
X132.4Y-112.2
X132.4Y-114.74
X132.4Y-117.28
X132.4Y-119.82
X132.4Y-122.36
X132.4Y-124.9
X132.4Y-127.44
X132.4Y-129.98
X132.4Y-132.52
T3
X146.56Y-62.724
X151.575Y-66.684
X156.59Y-62.724
T4
X177.676Y-117.677
X177.676Y-95.052
X139.052Y-79.054
X161.677Y-79.054
X139.052Y-133.676
X123.054Y-117.677
X161.677Y-133.676
X123.054Y-95.052
T2
G00X136.588Y-127.187
M15
G01X136.588Y-129.737
M16
G05
G00X140.203Y-124.517
M15
G01X142.753Y-124.517
M16
G05
G00X146.368Y-127.187
M15
G01X146.368Y-129.737
M16
G05
G00X156.908Y-127.187
M15
G01X156.908Y-129.737
M16
G05
G00X160.523Y-124.517
M15
G01X163.073Y-124.517
M16
G05
G00X166.688Y-127.187
M15
G01X166.688Y-129.737
M16
G05
T0
M30
