%TF.GenerationSoftware,KiCad,Pcbnew,(5.1.5)-3*%
%TF.CreationDate,2021-01-12T11:59:14+01:00*%
%TF.ProjectId,smart_object_pcb,736d6172-745f-46f6-926a-6563745f7063,rev?*%
%TF.SameCoordinates,Original*%
%TF.FileFunction,Soldermask,Top*%
%TF.FilePolarity,Negative*%
%FSLAX46Y46*%
G04 Gerber Fmt 4.6, Leading zero omitted, Abs format (unit mm)*
G04 Created by KiCad (PCBNEW (5.1.5)-3) date 2021-01-12 11:59:14*
%MOMM*%
%LPD*%
G04 APERTURE LIST*
%ADD10C,4.240000*%
%ADD11C,0.100000*%
%ADD12O,1.700000X1.700000*%
%ADD13R,1.700000X1.700000*%
%ADD14C,1.700000*%
%ADD15R,0.750000X0.200000*%
%ADD16R,0.200000X0.750000*%
%ADD17R,2.850000X2.850000*%
%ADD18R,0.500000X0.800000*%
%ADD19R,0.800000X0.500000*%
%ADD20C,2.100000*%
%ADD21C,1.000000*%
G04 APERTURE END LIST*
D10*
%TO.C,J7*%
X146560000Y-62724500D03*
X156590000Y-62724500D03*
X151575000Y-66684500D03*
%TD*%
D11*
%TO.C,J5*%
G36*
X156974653Y-126390275D02*
G01*
X157040662Y-126400067D01*
X157105394Y-126416282D01*
X157168225Y-126438763D01*
X157228550Y-126467294D01*
X157285788Y-126501601D01*
X157339388Y-126541354D01*
X157388833Y-126586168D01*
X157433647Y-126635613D01*
X157473400Y-126689213D01*
X157507707Y-126746451D01*
X157536238Y-126806776D01*
X157558719Y-126869607D01*
X157574934Y-126934339D01*
X157584726Y-127000348D01*
X157588000Y-127067000D01*
X157588000Y-129857000D01*
X157584726Y-129923652D01*
X157574934Y-129989661D01*
X157558719Y-130054393D01*
X157536238Y-130117224D01*
X157507707Y-130177549D01*
X157473400Y-130234787D01*
X157433647Y-130288387D01*
X157388833Y-130337832D01*
X157339388Y-130382646D01*
X157285788Y-130422399D01*
X157228550Y-130456706D01*
X157168225Y-130485237D01*
X157105394Y-130507718D01*
X157040662Y-130523933D01*
X156974653Y-130533725D01*
X156908001Y-130536999D01*
X156907999Y-130536999D01*
X156841347Y-130533725D01*
X156775338Y-130523933D01*
X156710606Y-130507718D01*
X156647775Y-130485237D01*
X156587450Y-130456706D01*
X156530212Y-130422399D01*
X156476612Y-130382646D01*
X156427167Y-130337832D01*
X156382353Y-130288387D01*
X156342600Y-130234787D01*
X156308293Y-130177549D01*
X156279762Y-130117224D01*
X156257281Y-130054393D01*
X156241066Y-129989661D01*
X156231274Y-129923652D01*
X156228000Y-129857000D01*
X156228000Y-127067000D01*
X156231274Y-127000348D01*
X156241066Y-126934339D01*
X156257281Y-126869607D01*
X156279762Y-126806776D01*
X156308293Y-126746451D01*
X156342600Y-126689213D01*
X156382353Y-126635613D01*
X156427167Y-126586168D01*
X156476612Y-126541354D01*
X156530212Y-126501601D01*
X156587450Y-126467294D01*
X156647775Y-126438763D01*
X156710606Y-126416282D01*
X156775338Y-126400067D01*
X156841347Y-126390275D01*
X156907999Y-126387001D01*
X156908001Y-126387001D01*
X156974653Y-126390275D01*
G37*
G36*
X166754653Y-126390275D02*
G01*
X166820662Y-126400067D01*
X166885394Y-126416282D01*
X166948225Y-126438763D01*
X167008550Y-126467294D01*
X167065788Y-126501601D01*
X167119388Y-126541354D01*
X167168833Y-126586168D01*
X167213647Y-126635613D01*
X167253400Y-126689213D01*
X167287707Y-126746451D01*
X167316238Y-126806776D01*
X167338719Y-126869607D01*
X167354934Y-126934339D01*
X167364726Y-127000348D01*
X167368000Y-127067000D01*
X167368000Y-129857000D01*
X167364726Y-129923652D01*
X167354934Y-129989661D01*
X167338719Y-130054393D01*
X167316238Y-130117224D01*
X167287707Y-130177549D01*
X167253400Y-130234787D01*
X167213647Y-130288387D01*
X167168833Y-130337832D01*
X167119388Y-130382646D01*
X167065788Y-130422399D01*
X167008550Y-130456706D01*
X166948225Y-130485237D01*
X166885394Y-130507718D01*
X166820662Y-130523933D01*
X166754653Y-130533725D01*
X166688001Y-130536999D01*
X166687999Y-130536999D01*
X166621347Y-130533725D01*
X166555338Y-130523933D01*
X166490606Y-130507718D01*
X166427775Y-130485237D01*
X166367450Y-130456706D01*
X166310212Y-130422399D01*
X166256612Y-130382646D01*
X166207167Y-130337832D01*
X166162353Y-130288387D01*
X166122600Y-130234787D01*
X166088293Y-130177549D01*
X166059762Y-130117224D01*
X166037281Y-130054393D01*
X166021066Y-129989661D01*
X166011274Y-129923652D01*
X166008000Y-129857000D01*
X166008000Y-127067000D01*
X166011274Y-127000348D01*
X166021066Y-126934339D01*
X166037281Y-126869607D01*
X166059762Y-126806776D01*
X166088293Y-126746451D01*
X166122600Y-126689213D01*
X166162353Y-126635613D01*
X166207167Y-126586168D01*
X166256612Y-126541354D01*
X166310212Y-126501601D01*
X166367450Y-126467294D01*
X166427775Y-126438763D01*
X166490606Y-126416282D01*
X166555338Y-126400067D01*
X166621347Y-126390275D01*
X166687999Y-126387001D01*
X166688001Y-126387001D01*
X166754653Y-126390275D01*
G37*
G36*
X163259652Y-123840273D02*
G01*
X163325661Y-123850065D01*
X163390394Y-123866280D01*
X163453225Y-123888761D01*
X163513550Y-123917293D01*
X163570788Y-123951600D01*
X163624387Y-123991352D01*
X163673833Y-124036166D01*
X163718647Y-124085612D01*
X163758399Y-124139211D01*
X163792706Y-124196449D01*
X163821238Y-124256774D01*
X163843719Y-124319605D01*
X163859934Y-124384338D01*
X163869726Y-124450347D01*
X163873000Y-124516999D01*
X163873000Y-124517001D01*
X163869726Y-124583653D01*
X163859934Y-124649662D01*
X163843719Y-124714395D01*
X163821238Y-124777226D01*
X163792706Y-124837551D01*
X163758399Y-124894789D01*
X163718647Y-124948388D01*
X163673833Y-124997834D01*
X163624387Y-125042648D01*
X163570788Y-125082400D01*
X163513550Y-125116707D01*
X163453225Y-125145239D01*
X163390394Y-125167720D01*
X163325661Y-125183935D01*
X163259652Y-125193727D01*
X163193000Y-125197001D01*
X160403000Y-125197001D01*
X160336348Y-125193727D01*
X160270339Y-125183935D01*
X160205606Y-125167720D01*
X160142775Y-125145239D01*
X160082450Y-125116707D01*
X160025212Y-125082400D01*
X159971613Y-125042648D01*
X159922167Y-124997834D01*
X159877353Y-124948388D01*
X159837601Y-124894789D01*
X159803294Y-124837551D01*
X159774762Y-124777226D01*
X159752281Y-124714395D01*
X159736066Y-124649662D01*
X159726274Y-124583653D01*
X159723000Y-124517001D01*
X159723000Y-124516999D01*
X159726274Y-124450347D01*
X159736066Y-124384338D01*
X159752281Y-124319605D01*
X159774762Y-124256774D01*
X159803294Y-124196449D01*
X159837601Y-124139211D01*
X159877353Y-124085612D01*
X159922167Y-124036166D01*
X159971613Y-123991352D01*
X160025212Y-123951600D01*
X160082450Y-123917293D01*
X160142775Y-123888761D01*
X160205606Y-123866280D01*
X160270339Y-123850065D01*
X160336348Y-123840273D01*
X160403000Y-123836999D01*
X163193000Y-123836999D01*
X163259652Y-123840273D01*
G37*
%TD*%
D12*
%TO.C,J2*%
X132400000Y-86800000D03*
X132400000Y-89340000D03*
X132400000Y-91880000D03*
X132400000Y-94420000D03*
X132400000Y-96960000D03*
X132400000Y-99500000D03*
X132400000Y-102040000D03*
X132400000Y-104580000D03*
X132400000Y-107120000D03*
X132400000Y-109660000D03*
X132400000Y-112200000D03*
X132400000Y-114740000D03*
X132400000Y-117280000D03*
X132400000Y-119820000D03*
X132400000Y-122360000D03*
X132400000Y-124900000D03*
X132400000Y-127440000D03*
X132400000Y-129980000D03*
D13*
X132400000Y-132520000D03*
%TD*%
D11*
%TO.C,R2*%
G36*
X152136506Y-98095204D02*
G01*
X152160774Y-98098804D01*
X152184573Y-98104765D01*
X152207672Y-98113030D01*
X152229850Y-98123519D01*
X152250893Y-98136132D01*
X152270599Y-98150747D01*
X152288777Y-98167223D01*
X152305253Y-98185401D01*
X152319868Y-98205107D01*
X152332481Y-98226150D01*
X152342970Y-98248328D01*
X152351235Y-98271427D01*
X152357196Y-98295226D01*
X152360796Y-98319494D01*
X152362000Y-98343998D01*
X152362000Y-98869002D01*
X152360796Y-98893506D01*
X152357196Y-98917774D01*
X152351235Y-98941573D01*
X152342970Y-98964672D01*
X152332481Y-98986850D01*
X152319868Y-99007893D01*
X152305253Y-99027599D01*
X152288777Y-99045777D01*
X152270599Y-99062253D01*
X152250893Y-99076868D01*
X152229850Y-99089481D01*
X152207672Y-99099970D01*
X152184573Y-99108235D01*
X152160774Y-99114196D01*
X152136506Y-99117796D01*
X152112002Y-99119000D01*
X151211998Y-99119000D01*
X151187494Y-99117796D01*
X151163226Y-99114196D01*
X151139427Y-99108235D01*
X151116328Y-99099970D01*
X151094150Y-99089481D01*
X151073107Y-99076868D01*
X151053401Y-99062253D01*
X151035223Y-99045777D01*
X151018747Y-99027599D01*
X151004132Y-99007893D01*
X150991519Y-98986850D01*
X150981030Y-98964672D01*
X150972765Y-98941573D01*
X150966804Y-98917774D01*
X150963204Y-98893506D01*
X150962000Y-98869002D01*
X150962000Y-98343998D01*
X150963204Y-98319494D01*
X150966804Y-98295226D01*
X150972765Y-98271427D01*
X150981030Y-98248328D01*
X150991519Y-98226150D01*
X151004132Y-98205107D01*
X151018747Y-98185401D01*
X151035223Y-98167223D01*
X151053401Y-98150747D01*
X151073107Y-98136132D01*
X151094150Y-98123519D01*
X151116328Y-98113030D01*
X151139427Y-98104765D01*
X151163226Y-98098804D01*
X151187494Y-98095204D01*
X151211998Y-98094000D01*
X152112002Y-98094000D01*
X152136506Y-98095204D01*
G37*
G36*
X152136506Y-99920204D02*
G01*
X152160774Y-99923804D01*
X152184573Y-99929765D01*
X152207672Y-99938030D01*
X152229850Y-99948519D01*
X152250893Y-99961132D01*
X152270599Y-99975747D01*
X152288777Y-99992223D01*
X152305253Y-100010401D01*
X152319868Y-100030107D01*
X152332481Y-100051150D01*
X152342970Y-100073328D01*
X152351235Y-100096427D01*
X152357196Y-100120226D01*
X152360796Y-100144494D01*
X152362000Y-100168998D01*
X152362000Y-100694002D01*
X152360796Y-100718506D01*
X152357196Y-100742774D01*
X152351235Y-100766573D01*
X152342970Y-100789672D01*
X152332481Y-100811850D01*
X152319868Y-100832893D01*
X152305253Y-100852599D01*
X152288777Y-100870777D01*
X152270599Y-100887253D01*
X152250893Y-100901868D01*
X152229850Y-100914481D01*
X152207672Y-100924970D01*
X152184573Y-100933235D01*
X152160774Y-100939196D01*
X152136506Y-100942796D01*
X152112002Y-100944000D01*
X151211998Y-100944000D01*
X151187494Y-100942796D01*
X151163226Y-100939196D01*
X151139427Y-100933235D01*
X151116328Y-100924970D01*
X151094150Y-100914481D01*
X151073107Y-100901868D01*
X151053401Y-100887253D01*
X151035223Y-100870777D01*
X151018747Y-100852599D01*
X151004132Y-100832893D01*
X150991519Y-100811850D01*
X150981030Y-100789672D01*
X150972765Y-100766573D01*
X150966804Y-100742774D01*
X150963204Y-100718506D01*
X150962000Y-100694002D01*
X150962000Y-100168998D01*
X150963204Y-100144494D01*
X150966804Y-100120226D01*
X150972765Y-100096427D01*
X150981030Y-100073328D01*
X150991519Y-100051150D01*
X151004132Y-100030107D01*
X151018747Y-100010401D01*
X151035223Y-99992223D01*
X151053401Y-99975747D01*
X151073107Y-99961132D01*
X151094150Y-99948519D01*
X151116328Y-99938030D01*
X151139427Y-99929765D01*
X151163226Y-99923804D01*
X151187494Y-99920204D01*
X151211998Y-99919000D01*
X152112002Y-99919000D01*
X152136506Y-99920204D01*
G37*
%TD*%
%TO.C,R28*%
G36*
X150348142Y-101805674D02*
G01*
X150371803Y-101809184D01*
X150395007Y-101814996D01*
X150417529Y-101823054D01*
X150439153Y-101833282D01*
X150459670Y-101845579D01*
X150478883Y-101859829D01*
X150496607Y-101875893D01*
X150512671Y-101893617D01*
X150526921Y-101912830D01*
X150539218Y-101933347D01*
X150549446Y-101954971D01*
X150557504Y-101977493D01*
X150563316Y-102000697D01*
X150566826Y-102024358D01*
X150568000Y-102048250D01*
X150568000Y-102535750D01*
X150566826Y-102559642D01*
X150563316Y-102583303D01*
X150557504Y-102606507D01*
X150549446Y-102629029D01*
X150539218Y-102650653D01*
X150526921Y-102671170D01*
X150512671Y-102690383D01*
X150496607Y-102708107D01*
X150478883Y-102724171D01*
X150459670Y-102738421D01*
X150439153Y-102750718D01*
X150417529Y-102760946D01*
X150395007Y-102769004D01*
X150371803Y-102774816D01*
X150348142Y-102778326D01*
X150324250Y-102779500D01*
X149411750Y-102779500D01*
X149387858Y-102778326D01*
X149364197Y-102774816D01*
X149340993Y-102769004D01*
X149318471Y-102760946D01*
X149296847Y-102750718D01*
X149276330Y-102738421D01*
X149257117Y-102724171D01*
X149239393Y-102708107D01*
X149223329Y-102690383D01*
X149209079Y-102671170D01*
X149196782Y-102650653D01*
X149186554Y-102629029D01*
X149178496Y-102606507D01*
X149172684Y-102583303D01*
X149169174Y-102559642D01*
X149168000Y-102535750D01*
X149168000Y-102048250D01*
X149169174Y-102024358D01*
X149172684Y-102000697D01*
X149178496Y-101977493D01*
X149186554Y-101954971D01*
X149196782Y-101933347D01*
X149209079Y-101912830D01*
X149223329Y-101893617D01*
X149239393Y-101875893D01*
X149257117Y-101859829D01*
X149276330Y-101845579D01*
X149296847Y-101833282D01*
X149318471Y-101823054D01*
X149340993Y-101814996D01*
X149364197Y-101809184D01*
X149387858Y-101805674D01*
X149411750Y-101804500D01*
X150324250Y-101804500D01*
X150348142Y-101805674D01*
G37*
G36*
X150348142Y-103680674D02*
G01*
X150371803Y-103684184D01*
X150395007Y-103689996D01*
X150417529Y-103698054D01*
X150439153Y-103708282D01*
X150459670Y-103720579D01*
X150478883Y-103734829D01*
X150496607Y-103750893D01*
X150512671Y-103768617D01*
X150526921Y-103787830D01*
X150539218Y-103808347D01*
X150549446Y-103829971D01*
X150557504Y-103852493D01*
X150563316Y-103875697D01*
X150566826Y-103899358D01*
X150568000Y-103923250D01*
X150568000Y-104410750D01*
X150566826Y-104434642D01*
X150563316Y-104458303D01*
X150557504Y-104481507D01*
X150549446Y-104504029D01*
X150539218Y-104525653D01*
X150526921Y-104546170D01*
X150512671Y-104565383D01*
X150496607Y-104583107D01*
X150478883Y-104599171D01*
X150459670Y-104613421D01*
X150439153Y-104625718D01*
X150417529Y-104635946D01*
X150395007Y-104644004D01*
X150371803Y-104649816D01*
X150348142Y-104653326D01*
X150324250Y-104654500D01*
X149411750Y-104654500D01*
X149387858Y-104653326D01*
X149364197Y-104649816D01*
X149340993Y-104644004D01*
X149318471Y-104635946D01*
X149296847Y-104625718D01*
X149276330Y-104613421D01*
X149257117Y-104599171D01*
X149239393Y-104583107D01*
X149223329Y-104565383D01*
X149209079Y-104546170D01*
X149196782Y-104525653D01*
X149186554Y-104504029D01*
X149178496Y-104481507D01*
X149172684Y-104458303D01*
X149169174Y-104434642D01*
X149168000Y-104410750D01*
X149168000Y-103923250D01*
X149169174Y-103899358D01*
X149172684Y-103875697D01*
X149178496Y-103852493D01*
X149186554Y-103829971D01*
X149196782Y-103808347D01*
X149209079Y-103787830D01*
X149223329Y-103768617D01*
X149239393Y-103750893D01*
X149257117Y-103734829D01*
X149276330Y-103720579D01*
X149296847Y-103708282D01*
X149318471Y-103698054D01*
X149340993Y-103689996D01*
X149364197Y-103684184D01*
X149387858Y-103680674D01*
X149411750Y-103679500D01*
X150324250Y-103679500D01*
X150348142Y-103680674D01*
G37*
%TD*%
%TO.C,C4*%
G36*
X136214642Y-59009174D02*
G01*
X136238303Y-59012684D01*
X136261507Y-59018496D01*
X136284029Y-59026554D01*
X136305653Y-59036782D01*
X136326170Y-59049079D01*
X136345383Y-59063329D01*
X136363107Y-59079393D01*
X136379171Y-59097117D01*
X136393421Y-59116330D01*
X136405718Y-59136847D01*
X136415946Y-59158471D01*
X136424004Y-59180993D01*
X136429816Y-59204197D01*
X136433326Y-59227858D01*
X136434500Y-59251750D01*
X136434500Y-60164250D01*
X136433326Y-60188142D01*
X136429816Y-60211803D01*
X136424004Y-60235007D01*
X136415946Y-60257529D01*
X136405718Y-60279153D01*
X136393421Y-60299670D01*
X136379171Y-60318883D01*
X136363107Y-60336607D01*
X136345383Y-60352671D01*
X136326170Y-60366921D01*
X136305653Y-60379218D01*
X136284029Y-60389446D01*
X136261507Y-60397504D01*
X136238303Y-60403316D01*
X136214642Y-60406826D01*
X136190750Y-60408000D01*
X135703250Y-60408000D01*
X135679358Y-60406826D01*
X135655697Y-60403316D01*
X135632493Y-60397504D01*
X135609971Y-60389446D01*
X135588347Y-60379218D01*
X135567830Y-60366921D01*
X135548617Y-60352671D01*
X135530893Y-60336607D01*
X135514829Y-60318883D01*
X135500579Y-60299670D01*
X135488282Y-60279153D01*
X135478054Y-60257529D01*
X135469996Y-60235007D01*
X135464184Y-60211803D01*
X135460674Y-60188142D01*
X135459500Y-60164250D01*
X135459500Y-59251750D01*
X135460674Y-59227858D01*
X135464184Y-59204197D01*
X135469996Y-59180993D01*
X135478054Y-59158471D01*
X135488282Y-59136847D01*
X135500579Y-59116330D01*
X135514829Y-59097117D01*
X135530893Y-59079393D01*
X135548617Y-59063329D01*
X135567830Y-59049079D01*
X135588347Y-59036782D01*
X135609971Y-59026554D01*
X135632493Y-59018496D01*
X135655697Y-59012684D01*
X135679358Y-59009174D01*
X135703250Y-59008000D01*
X136190750Y-59008000D01*
X136214642Y-59009174D01*
G37*
G36*
X134339642Y-59009174D02*
G01*
X134363303Y-59012684D01*
X134386507Y-59018496D01*
X134409029Y-59026554D01*
X134430653Y-59036782D01*
X134451170Y-59049079D01*
X134470383Y-59063329D01*
X134488107Y-59079393D01*
X134504171Y-59097117D01*
X134518421Y-59116330D01*
X134530718Y-59136847D01*
X134540946Y-59158471D01*
X134549004Y-59180993D01*
X134554816Y-59204197D01*
X134558326Y-59227858D01*
X134559500Y-59251750D01*
X134559500Y-60164250D01*
X134558326Y-60188142D01*
X134554816Y-60211803D01*
X134549004Y-60235007D01*
X134540946Y-60257529D01*
X134530718Y-60279153D01*
X134518421Y-60299670D01*
X134504171Y-60318883D01*
X134488107Y-60336607D01*
X134470383Y-60352671D01*
X134451170Y-60366921D01*
X134430653Y-60379218D01*
X134409029Y-60389446D01*
X134386507Y-60397504D01*
X134363303Y-60403316D01*
X134339642Y-60406826D01*
X134315750Y-60408000D01*
X133828250Y-60408000D01*
X133804358Y-60406826D01*
X133780697Y-60403316D01*
X133757493Y-60397504D01*
X133734971Y-60389446D01*
X133713347Y-60379218D01*
X133692830Y-60366921D01*
X133673617Y-60352671D01*
X133655893Y-60336607D01*
X133639829Y-60318883D01*
X133625579Y-60299670D01*
X133613282Y-60279153D01*
X133603054Y-60257529D01*
X133594996Y-60235007D01*
X133589184Y-60211803D01*
X133585674Y-60188142D01*
X133584500Y-60164250D01*
X133584500Y-59251750D01*
X133585674Y-59227858D01*
X133589184Y-59204197D01*
X133594996Y-59180993D01*
X133603054Y-59158471D01*
X133613282Y-59136847D01*
X133625579Y-59116330D01*
X133639829Y-59097117D01*
X133655893Y-59079393D01*
X133673617Y-59063329D01*
X133692830Y-59049079D01*
X133713347Y-59036782D01*
X133734971Y-59026554D01*
X133757493Y-59018496D01*
X133780697Y-59012684D01*
X133804358Y-59009174D01*
X133828250Y-59008000D01*
X134315750Y-59008000D01*
X134339642Y-59009174D01*
G37*
%TD*%
%TO.C,C3*%
G36*
X141417642Y-59044174D02*
G01*
X141441303Y-59047684D01*
X141464507Y-59053496D01*
X141487029Y-59061554D01*
X141508653Y-59071782D01*
X141529170Y-59084079D01*
X141548383Y-59098329D01*
X141566107Y-59114393D01*
X141582171Y-59132117D01*
X141596421Y-59151330D01*
X141608718Y-59171847D01*
X141618946Y-59193471D01*
X141627004Y-59215993D01*
X141632816Y-59239197D01*
X141636326Y-59262858D01*
X141637500Y-59286750D01*
X141637500Y-60199250D01*
X141636326Y-60223142D01*
X141632816Y-60246803D01*
X141627004Y-60270007D01*
X141618946Y-60292529D01*
X141608718Y-60314153D01*
X141596421Y-60334670D01*
X141582171Y-60353883D01*
X141566107Y-60371607D01*
X141548383Y-60387671D01*
X141529170Y-60401921D01*
X141508653Y-60414218D01*
X141487029Y-60424446D01*
X141464507Y-60432504D01*
X141441303Y-60438316D01*
X141417642Y-60441826D01*
X141393750Y-60443000D01*
X140906250Y-60443000D01*
X140882358Y-60441826D01*
X140858697Y-60438316D01*
X140835493Y-60432504D01*
X140812971Y-60424446D01*
X140791347Y-60414218D01*
X140770830Y-60401921D01*
X140751617Y-60387671D01*
X140733893Y-60371607D01*
X140717829Y-60353883D01*
X140703579Y-60334670D01*
X140691282Y-60314153D01*
X140681054Y-60292529D01*
X140672996Y-60270007D01*
X140667184Y-60246803D01*
X140663674Y-60223142D01*
X140662500Y-60199250D01*
X140662500Y-59286750D01*
X140663674Y-59262858D01*
X140667184Y-59239197D01*
X140672996Y-59215993D01*
X140681054Y-59193471D01*
X140691282Y-59171847D01*
X140703579Y-59151330D01*
X140717829Y-59132117D01*
X140733893Y-59114393D01*
X140751617Y-59098329D01*
X140770830Y-59084079D01*
X140791347Y-59071782D01*
X140812971Y-59061554D01*
X140835493Y-59053496D01*
X140858697Y-59047684D01*
X140882358Y-59044174D01*
X140906250Y-59043000D01*
X141393750Y-59043000D01*
X141417642Y-59044174D01*
G37*
G36*
X139542642Y-59044174D02*
G01*
X139566303Y-59047684D01*
X139589507Y-59053496D01*
X139612029Y-59061554D01*
X139633653Y-59071782D01*
X139654170Y-59084079D01*
X139673383Y-59098329D01*
X139691107Y-59114393D01*
X139707171Y-59132117D01*
X139721421Y-59151330D01*
X139733718Y-59171847D01*
X139743946Y-59193471D01*
X139752004Y-59215993D01*
X139757816Y-59239197D01*
X139761326Y-59262858D01*
X139762500Y-59286750D01*
X139762500Y-60199250D01*
X139761326Y-60223142D01*
X139757816Y-60246803D01*
X139752004Y-60270007D01*
X139743946Y-60292529D01*
X139733718Y-60314153D01*
X139721421Y-60334670D01*
X139707171Y-60353883D01*
X139691107Y-60371607D01*
X139673383Y-60387671D01*
X139654170Y-60401921D01*
X139633653Y-60414218D01*
X139612029Y-60424446D01*
X139589507Y-60432504D01*
X139566303Y-60438316D01*
X139542642Y-60441826D01*
X139518750Y-60443000D01*
X139031250Y-60443000D01*
X139007358Y-60441826D01*
X138983697Y-60438316D01*
X138960493Y-60432504D01*
X138937971Y-60424446D01*
X138916347Y-60414218D01*
X138895830Y-60401921D01*
X138876617Y-60387671D01*
X138858893Y-60371607D01*
X138842829Y-60353883D01*
X138828579Y-60334670D01*
X138816282Y-60314153D01*
X138806054Y-60292529D01*
X138797996Y-60270007D01*
X138792184Y-60246803D01*
X138788674Y-60223142D01*
X138787500Y-60199250D01*
X138787500Y-59286750D01*
X138788674Y-59262858D01*
X138792184Y-59239197D01*
X138797996Y-59215993D01*
X138806054Y-59193471D01*
X138816282Y-59171847D01*
X138828579Y-59151330D01*
X138842829Y-59132117D01*
X138858893Y-59114393D01*
X138876617Y-59098329D01*
X138895830Y-59084079D01*
X138916347Y-59071782D01*
X138937971Y-59061554D01*
X138960493Y-59053496D01*
X138983697Y-59047684D01*
X139007358Y-59044174D01*
X139031250Y-59043000D01*
X139518750Y-59043000D01*
X139542642Y-59044174D01*
G37*
%TD*%
%TO.C,LED7*%
G36*
X172451885Y-129441834D02*
G01*
X171886200Y-128876149D01*
X172239753Y-128522596D01*
X172805438Y-129088281D01*
X172451885Y-129441834D01*
G37*
G36*
X173088281Y-128805438D02*
G01*
X172522596Y-128239753D01*
X172876149Y-127886200D01*
X173441834Y-128451885D01*
X173088281Y-128805438D01*
G37*
G36*
X174219651Y-129936808D02*
G01*
X173653966Y-129371123D01*
X174007519Y-129017570D01*
X174573204Y-129583255D01*
X174219651Y-129936808D01*
G37*
G36*
X173583255Y-130573204D02*
G01*
X173017570Y-130007519D01*
X173371123Y-129653966D01*
X173936808Y-130219651D01*
X173583255Y-130573204D01*
G37*
%TD*%
%TO.C,J4*%
G36*
X183200000Y-69997918D02*
G01*
X184402082Y-71200000D01*
X183200000Y-72402082D01*
X181997918Y-71200000D01*
X183200000Y-69997918D01*
G37*
D14*
X184996051Y-72996051D02*
X184996051Y-72996051D01*
X186792102Y-74792102D02*
X186792102Y-74792102D01*
X188588154Y-76588154D02*
X188588154Y-76588154D01*
%TD*%
D11*
%TO.C,LED4*%
G36*
X126156498Y-129583255D02*
G01*
X126722183Y-129017570D01*
X127075736Y-129371123D01*
X126510051Y-129936808D01*
X126156498Y-129583255D01*
G37*
G36*
X126792894Y-130219651D02*
G01*
X127358579Y-129653966D01*
X127712132Y-130007519D01*
X127146447Y-130573204D01*
X126792894Y-130219651D01*
G37*
G36*
X127924264Y-129088281D02*
G01*
X128489949Y-128522596D01*
X128843502Y-128876149D01*
X128277817Y-129441834D01*
X127924264Y-129088281D01*
G37*
G36*
X127287868Y-128451885D02*
G01*
X127853553Y-127886200D01*
X128207106Y-128239753D01*
X127641421Y-128805438D01*
X127287868Y-128451885D01*
G37*
%TD*%
%TO.C,R8*%
G36*
X137362006Y-94401204D02*
G01*
X137386274Y-94404804D01*
X137410073Y-94410765D01*
X137433172Y-94419030D01*
X137455350Y-94429519D01*
X137476393Y-94442132D01*
X137496099Y-94456747D01*
X137514277Y-94473223D01*
X137530753Y-94491401D01*
X137545368Y-94511107D01*
X137557981Y-94532150D01*
X137568470Y-94554328D01*
X137576735Y-94577427D01*
X137582696Y-94601226D01*
X137586296Y-94625494D01*
X137587500Y-94649998D01*
X137587500Y-95550002D01*
X137586296Y-95574506D01*
X137582696Y-95598774D01*
X137576735Y-95622573D01*
X137568470Y-95645672D01*
X137557981Y-95667850D01*
X137545368Y-95688893D01*
X137530753Y-95708599D01*
X137514277Y-95726777D01*
X137496099Y-95743253D01*
X137476393Y-95757868D01*
X137455350Y-95770481D01*
X137433172Y-95780970D01*
X137410073Y-95789235D01*
X137386274Y-95795196D01*
X137362006Y-95798796D01*
X137337502Y-95800000D01*
X136812498Y-95800000D01*
X136787994Y-95798796D01*
X136763726Y-95795196D01*
X136739927Y-95789235D01*
X136716828Y-95780970D01*
X136694650Y-95770481D01*
X136673607Y-95757868D01*
X136653901Y-95743253D01*
X136635723Y-95726777D01*
X136619247Y-95708599D01*
X136604632Y-95688893D01*
X136592019Y-95667850D01*
X136581530Y-95645672D01*
X136573265Y-95622573D01*
X136567304Y-95598774D01*
X136563704Y-95574506D01*
X136562500Y-95550002D01*
X136562500Y-94649998D01*
X136563704Y-94625494D01*
X136567304Y-94601226D01*
X136573265Y-94577427D01*
X136581530Y-94554328D01*
X136592019Y-94532150D01*
X136604632Y-94511107D01*
X136619247Y-94491401D01*
X136635723Y-94473223D01*
X136653901Y-94456747D01*
X136673607Y-94442132D01*
X136694650Y-94429519D01*
X136716828Y-94419030D01*
X136739927Y-94410765D01*
X136763726Y-94404804D01*
X136787994Y-94401204D01*
X136812498Y-94400000D01*
X137337502Y-94400000D01*
X137362006Y-94401204D01*
G37*
G36*
X139187006Y-94401204D02*
G01*
X139211274Y-94404804D01*
X139235073Y-94410765D01*
X139258172Y-94419030D01*
X139280350Y-94429519D01*
X139301393Y-94442132D01*
X139321099Y-94456747D01*
X139339277Y-94473223D01*
X139355753Y-94491401D01*
X139370368Y-94511107D01*
X139382981Y-94532150D01*
X139393470Y-94554328D01*
X139401735Y-94577427D01*
X139407696Y-94601226D01*
X139411296Y-94625494D01*
X139412500Y-94649998D01*
X139412500Y-95550002D01*
X139411296Y-95574506D01*
X139407696Y-95598774D01*
X139401735Y-95622573D01*
X139393470Y-95645672D01*
X139382981Y-95667850D01*
X139370368Y-95688893D01*
X139355753Y-95708599D01*
X139339277Y-95726777D01*
X139321099Y-95743253D01*
X139301393Y-95757868D01*
X139280350Y-95770481D01*
X139258172Y-95780970D01*
X139235073Y-95789235D01*
X139211274Y-95795196D01*
X139187006Y-95798796D01*
X139162502Y-95800000D01*
X138637498Y-95800000D01*
X138612994Y-95798796D01*
X138588726Y-95795196D01*
X138564927Y-95789235D01*
X138541828Y-95780970D01*
X138519650Y-95770481D01*
X138498607Y-95757868D01*
X138478901Y-95743253D01*
X138460723Y-95726777D01*
X138444247Y-95708599D01*
X138429632Y-95688893D01*
X138417019Y-95667850D01*
X138406530Y-95645672D01*
X138398265Y-95622573D01*
X138392304Y-95598774D01*
X138388704Y-95574506D01*
X138387500Y-95550002D01*
X138387500Y-94649998D01*
X138388704Y-94625494D01*
X138392304Y-94601226D01*
X138398265Y-94577427D01*
X138406530Y-94554328D01*
X138417019Y-94532150D01*
X138429632Y-94511107D01*
X138444247Y-94491401D01*
X138460723Y-94473223D01*
X138478901Y-94456747D01*
X138498607Y-94442132D01*
X138519650Y-94429519D01*
X138541828Y-94419030D01*
X138564927Y-94410765D01*
X138588726Y-94404804D01*
X138612994Y-94401204D01*
X138637498Y-94400000D01*
X139162502Y-94400000D01*
X139187006Y-94401204D01*
G37*
%TD*%
%TO.C,R7*%
G36*
X139187006Y-92151204D02*
G01*
X139211274Y-92154804D01*
X139235073Y-92160765D01*
X139258172Y-92169030D01*
X139280350Y-92179519D01*
X139301393Y-92192132D01*
X139321099Y-92206747D01*
X139339277Y-92223223D01*
X139355753Y-92241401D01*
X139370368Y-92261107D01*
X139382981Y-92282150D01*
X139393470Y-92304328D01*
X139401735Y-92327427D01*
X139407696Y-92351226D01*
X139411296Y-92375494D01*
X139412500Y-92399998D01*
X139412500Y-93300002D01*
X139411296Y-93324506D01*
X139407696Y-93348774D01*
X139401735Y-93372573D01*
X139393470Y-93395672D01*
X139382981Y-93417850D01*
X139370368Y-93438893D01*
X139355753Y-93458599D01*
X139339277Y-93476777D01*
X139321099Y-93493253D01*
X139301393Y-93507868D01*
X139280350Y-93520481D01*
X139258172Y-93530970D01*
X139235073Y-93539235D01*
X139211274Y-93545196D01*
X139187006Y-93548796D01*
X139162502Y-93550000D01*
X138637498Y-93550000D01*
X138612994Y-93548796D01*
X138588726Y-93545196D01*
X138564927Y-93539235D01*
X138541828Y-93530970D01*
X138519650Y-93520481D01*
X138498607Y-93507868D01*
X138478901Y-93493253D01*
X138460723Y-93476777D01*
X138444247Y-93458599D01*
X138429632Y-93438893D01*
X138417019Y-93417850D01*
X138406530Y-93395672D01*
X138398265Y-93372573D01*
X138392304Y-93348774D01*
X138388704Y-93324506D01*
X138387500Y-93300002D01*
X138387500Y-92399998D01*
X138388704Y-92375494D01*
X138392304Y-92351226D01*
X138398265Y-92327427D01*
X138406530Y-92304328D01*
X138417019Y-92282150D01*
X138429632Y-92261107D01*
X138444247Y-92241401D01*
X138460723Y-92223223D01*
X138478901Y-92206747D01*
X138498607Y-92192132D01*
X138519650Y-92179519D01*
X138541828Y-92169030D01*
X138564927Y-92160765D01*
X138588726Y-92154804D01*
X138612994Y-92151204D01*
X138637498Y-92150000D01*
X139162502Y-92150000D01*
X139187006Y-92151204D01*
G37*
G36*
X137362006Y-92151204D02*
G01*
X137386274Y-92154804D01*
X137410073Y-92160765D01*
X137433172Y-92169030D01*
X137455350Y-92179519D01*
X137476393Y-92192132D01*
X137496099Y-92206747D01*
X137514277Y-92223223D01*
X137530753Y-92241401D01*
X137545368Y-92261107D01*
X137557981Y-92282150D01*
X137568470Y-92304328D01*
X137576735Y-92327427D01*
X137582696Y-92351226D01*
X137586296Y-92375494D01*
X137587500Y-92399998D01*
X137587500Y-93300002D01*
X137586296Y-93324506D01*
X137582696Y-93348774D01*
X137576735Y-93372573D01*
X137568470Y-93395672D01*
X137557981Y-93417850D01*
X137545368Y-93438893D01*
X137530753Y-93458599D01*
X137514277Y-93476777D01*
X137496099Y-93493253D01*
X137476393Y-93507868D01*
X137455350Y-93520481D01*
X137433172Y-93530970D01*
X137410073Y-93539235D01*
X137386274Y-93545196D01*
X137362006Y-93548796D01*
X137337502Y-93550000D01*
X136812498Y-93550000D01*
X136787994Y-93548796D01*
X136763726Y-93545196D01*
X136739927Y-93539235D01*
X136716828Y-93530970D01*
X136694650Y-93520481D01*
X136673607Y-93507868D01*
X136653901Y-93493253D01*
X136635723Y-93476777D01*
X136619247Y-93458599D01*
X136604632Y-93438893D01*
X136592019Y-93417850D01*
X136581530Y-93395672D01*
X136573265Y-93372573D01*
X136567304Y-93348774D01*
X136563704Y-93324506D01*
X136562500Y-93300002D01*
X136562500Y-92399998D01*
X136563704Y-92375494D01*
X136567304Y-92351226D01*
X136573265Y-92327427D01*
X136581530Y-92304328D01*
X136592019Y-92282150D01*
X136604632Y-92261107D01*
X136619247Y-92241401D01*
X136635723Y-92223223D01*
X136653901Y-92206747D01*
X136673607Y-92192132D01*
X136694650Y-92179519D01*
X136716828Y-92169030D01*
X136739927Y-92160765D01*
X136763726Y-92154804D01*
X136787994Y-92151204D01*
X136812498Y-92150000D01*
X137337502Y-92150000D01*
X137362006Y-92151204D01*
G37*
%TD*%
%TO.C,R1*%
G36*
X154247506Y-99921704D02*
G01*
X154271774Y-99925304D01*
X154295573Y-99931265D01*
X154318672Y-99939530D01*
X154340850Y-99950019D01*
X154361893Y-99962632D01*
X154381599Y-99977247D01*
X154399777Y-99993723D01*
X154416253Y-100011901D01*
X154430868Y-100031607D01*
X154443481Y-100052650D01*
X154453970Y-100074828D01*
X154462235Y-100097927D01*
X154468196Y-100121726D01*
X154471796Y-100145994D01*
X154473000Y-100170498D01*
X154473000Y-100695502D01*
X154471796Y-100720006D01*
X154468196Y-100744274D01*
X154462235Y-100768073D01*
X154453970Y-100791172D01*
X154443481Y-100813350D01*
X154430868Y-100834393D01*
X154416253Y-100854099D01*
X154399777Y-100872277D01*
X154381599Y-100888753D01*
X154361893Y-100903368D01*
X154340850Y-100915981D01*
X154318672Y-100926470D01*
X154295573Y-100934735D01*
X154271774Y-100940696D01*
X154247506Y-100944296D01*
X154223002Y-100945500D01*
X153322998Y-100945500D01*
X153298494Y-100944296D01*
X153274226Y-100940696D01*
X153250427Y-100934735D01*
X153227328Y-100926470D01*
X153205150Y-100915981D01*
X153184107Y-100903368D01*
X153164401Y-100888753D01*
X153146223Y-100872277D01*
X153129747Y-100854099D01*
X153115132Y-100834393D01*
X153102519Y-100813350D01*
X153092030Y-100791172D01*
X153083765Y-100768073D01*
X153077804Y-100744274D01*
X153074204Y-100720006D01*
X153073000Y-100695502D01*
X153073000Y-100170498D01*
X153074204Y-100145994D01*
X153077804Y-100121726D01*
X153083765Y-100097927D01*
X153092030Y-100074828D01*
X153102519Y-100052650D01*
X153115132Y-100031607D01*
X153129747Y-100011901D01*
X153146223Y-99993723D01*
X153164401Y-99977247D01*
X153184107Y-99962632D01*
X153205150Y-99950019D01*
X153227328Y-99939530D01*
X153250427Y-99931265D01*
X153274226Y-99925304D01*
X153298494Y-99921704D01*
X153322998Y-99920500D01*
X154223002Y-99920500D01*
X154247506Y-99921704D01*
G37*
G36*
X154247506Y-98096704D02*
G01*
X154271774Y-98100304D01*
X154295573Y-98106265D01*
X154318672Y-98114530D01*
X154340850Y-98125019D01*
X154361893Y-98137632D01*
X154381599Y-98152247D01*
X154399777Y-98168723D01*
X154416253Y-98186901D01*
X154430868Y-98206607D01*
X154443481Y-98227650D01*
X154453970Y-98249828D01*
X154462235Y-98272927D01*
X154468196Y-98296726D01*
X154471796Y-98320994D01*
X154473000Y-98345498D01*
X154473000Y-98870502D01*
X154471796Y-98895006D01*
X154468196Y-98919274D01*
X154462235Y-98943073D01*
X154453970Y-98966172D01*
X154443481Y-98988350D01*
X154430868Y-99009393D01*
X154416253Y-99029099D01*
X154399777Y-99047277D01*
X154381599Y-99063753D01*
X154361893Y-99078368D01*
X154340850Y-99090981D01*
X154318672Y-99101470D01*
X154295573Y-99109735D01*
X154271774Y-99115696D01*
X154247506Y-99119296D01*
X154223002Y-99120500D01*
X153322998Y-99120500D01*
X153298494Y-99119296D01*
X153274226Y-99115696D01*
X153250427Y-99109735D01*
X153227328Y-99101470D01*
X153205150Y-99090981D01*
X153184107Y-99078368D01*
X153164401Y-99063753D01*
X153146223Y-99047277D01*
X153129747Y-99029099D01*
X153115132Y-99009393D01*
X153102519Y-98988350D01*
X153092030Y-98966172D01*
X153083765Y-98943073D01*
X153077804Y-98919274D01*
X153074204Y-98895006D01*
X153073000Y-98870502D01*
X153073000Y-98345498D01*
X153074204Y-98320994D01*
X153077804Y-98296726D01*
X153083765Y-98272927D01*
X153092030Y-98249828D01*
X153102519Y-98227650D01*
X153115132Y-98206607D01*
X153129747Y-98186901D01*
X153146223Y-98168723D01*
X153164401Y-98152247D01*
X153184107Y-98137632D01*
X153205150Y-98125019D01*
X153227328Y-98114530D01*
X153250427Y-98106265D01*
X153274226Y-98100304D01*
X153298494Y-98096704D01*
X153322998Y-98095500D01*
X154223002Y-98095500D01*
X154247506Y-98096704D01*
G37*
%TD*%
%TO.C,LED2*%
G36*
X127146447Y-82156498D02*
G01*
X127712132Y-82722183D01*
X127358579Y-83075736D01*
X126792894Y-82510051D01*
X127146447Y-82156498D01*
G37*
G36*
X126510051Y-82792894D02*
G01*
X127075736Y-83358579D01*
X126722183Y-83712132D01*
X126156498Y-83146447D01*
X126510051Y-82792894D01*
G37*
G36*
X127641421Y-83924264D02*
G01*
X128207106Y-84489949D01*
X127853553Y-84843502D01*
X127287868Y-84277817D01*
X127641421Y-83924264D01*
G37*
G36*
X128277817Y-83287868D02*
G01*
X128843502Y-83853553D01*
X128489949Y-84207106D01*
X127924264Y-83641421D01*
X128277817Y-83287868D01*
G37*
%TD*%
%TO.C,R18*%
G36*
X166446686Y-91292625D02*
G01*
X166470954Y-91296225D01*
X166494753Y-91302186D01*
X166517852Y-91310451D01*
X166540030Y-91320940D01*
X166561073Y-91333553D01*
X166580779Y-91348168D01*
X166598957Y-91364644D01*
X167235356Y-92001043D01*
X167251832Y-92019221D01*
X167266447Y-92038927D01*
X167279060Y-92059970D01*
X167289549Y-92082148D01*
X167297814Y-92105247D01*
X167303775Y-92129046D01*
X167307375Y-92153314D01*
X167308579Y-92177818D01*
X167307375Y-92202322D01*
X167303775Y-92226590D01*
X167297814Y-92250389D01*
X167289549Y-92273488D01*
X167279060Y-92295666D01*
X167266447Y-92316709D01*
X167251832Y-92336415D01*
X167235356Y-92354593D01*
X166864123Y-92725826D01*
X166845945Y-92742302D01*
X166826239Y-92756917D01*
X166805196Y-92769530D01*
X166783018Y-92780019D01*
X166759919Y-92788284D01*
X166736120Y-92794245D01*
X166711852Y-92797845D01*
X166687348Y-92799049D01*
X166662844Y-92797845D01*
X166638576Y-92794245D01*
X166614777Y-92788284D01*
X166591678Y-92780019D01*
X166569500Y-92769530D01*
X166548457Y-92756917D01*
X166528751Y-92742302D01*
X166510573Y-92725826D01*
X165874174Y-92089427D01*
X165857698Y-92071249D01*
X165843083Y-92051543D01*
X165830470Y-92030500D01*
X165819981Y-92008322D01*
X165811716Y-91985223D01*
X165805755Y-91961424D01*
X165802155Y-91937156D01*
X165800951Y-91912652D01*
X165802155Y-91888148D01*
X165805755Y-91863880D01*
X165811716Y-91840081D01*
X165819981Y-91816982D01*
X165830470Y-91794804D01*
X165843083Y-91773761D01*
X165857698Y-91754055D01*
X165874174Y-91735877D01*
X166245407Y-91364644D01*
X166263585Y-91348168D01*
X166283291Y-91333553D01*
X166304334Y-91320940D01*
X166326512Y-91310451D01*
X166349611Y-91302186D01*
X166373410Y-91296225D01*
X166397678Y-91292625D01*
X166422182Y-91291421D01*
X166446686Y-91292625D01*
G37*
G36*
X167737156Y-90002155D02*
G01*
X167761424Y-90005755D01*
X167785223Y-90011716D01*
X167808322Y-90019981D01*
X167830500Y-90030470D01*
X167851543Y-90043083D01*
X167871249Y-90057698D01*
X167889427Y-90074174D01*
X168525826Y-90710573D01*
X168542302Y-90728751D01*
X168556917Y-90748457D01*
X168569530Y-90769500D01*
X168580019Y-90791678D01*
X168588284Y-90814777D01*
X168594245Y-90838576D01*
X168597845Y-90862844D01*
X168599049Y-90887348D01*
X168597845Y-90911852D01*
X168594245Y-90936120D01*
X168588284Y-90959919D01*
X168580019Y-90983018D01*
X168569530Y-91005196D01*
X168556917Y-91026239D01*
X168542302Y-91045945D01*
X168525826Y-91064123D01*
X168154593Y-91435356D01*
X168136415Y-91451832D01*
X168116709Y-91466447D01*
X168095666Y-91479060D01*
X168073488Y-91489549D01*
X168050389Y-91497814D01*
X168026590Y-91503775D01*
X168002322Y-91507375D01*
X167977818Y-91508579D01*
X167953314Y-91507375D01*
X167929046Y-91503775D01*
X167905247Y-91497814D01*
X167882148Y-91489549D01*
X167859970Y-91479060D01*
X167838927Y-91466447D01*
X167819221Y-91451832D01*
X167801043Y-91435356D01*
X167164644Y-90798957D01*
X167148168Y-90780779D01*
X167133553Y-90761073D01*
X167120940Y-90740030D01*
X167110451Y-90717852D01*
X167102186Y-90694753D01*
X167096225Y-90670954D01*
X167092625Y-90646686D01*
X167091421Y-90622182D01*
X167092625Y-90597678D01*
X167096225Y-90573410D01*
X167102186Y-90549611D01*
X167110451Y-90526512D01*
X167120940Y-90504334D01*
X167133553Y-90483291D01*
X167148168Y-90463585D01*
X167164644Y-90445407D01*
X167535877Y-90074174D01*
X167554055Y-90057698D01*
X167573761Y-90043083D01*
X167594804Y-90030470D01*
X167616982Y-90019981D01*
X167640081Y-90011716D01*
X167663880Y-90005755D01*
X167688148Y-90002155D01*
X167712652Y-90000951D01*
X167737156Y-90002155D01*
G37*
%TD*%
%TO.C,C1*%
G36*
X147469504Y-105113204D02*
G01*
X147493773Y-105116804D01*
X147517571Y-105122765D01*
X147540671Y-105131030D01*
X147562849Y-105141520D01*
X147583893Y-105154133D01*
X147603598Y-105168747D01*
X147621777Y-105185223D01*
X147638253Y-105203402D01*
X147652867Y-105223107D01*
X147665480Y-105244151D01*
X147675970Y-105266329D01*
X147684235Y-105289429D01*
X147690196Y-105313227D01*
X147693796Y-105337496D01*
X147695000Y-105362000D01*
X147695000Y-105862000D01*
X147693796Y-105886504D01*
X147690196Y-105910773D01*
X147684235Y-105934571D01*
X147675970Y-105957671D01*
X147665480Y-105979849D01*
X147652867Y-106000893D01*
X147638253Y-106020598D01*
X147621777Y-106038777D01*
X147603598Y-106055253D01*
X147583893Y-106069867D01*
X147562849Y-106082480D01*
X147540671Y-106092970D01*
X147517571Y-106101235D01*
X147493773Y-106107196D01*
X147469504Y-106110796D01*
X147445000Y-106112000D01*
X146495000Y-106112000D01*
X146470496Y-106110796D01*
X146446227Y-106107196D01*
X146422429Y-106101235D01*
X146399329Y-106092970D01*
X146377151Y-106082480D01*
X146356107Y-106069867D01*
X146336402Y-106055253D01*
X146318223Y-106038777D01*
X146301747Y-106020598D01*
X146287133Y-106000893D01*
X146274520Y-105979849D01*
X146264030Y-105957671D01*
X146255765Y-105934571D01*
X146249804Y-105910773D01*
X146246204Y-105886504D01*
X146245000Y-105862000D01*
X146245000Y-105362000D01*
X146246204Y-105337496D01*
X146249804Y-105313227D01*
X146255765Y-105289429D01*
X146264030Y-105266329D01*
X146274520Y-105244151D01*
X146287133Y-105223107D01*
X146301747Y-105203402D01*
X146318223Y-105185223D01*
X146336402Y-105168747D01*
X146356107Y-105154133D01*
X146377151Y-105141520D01*
X146399329Y-105131030D01*
X146422429Y-105122765D01*
X146446227Y-105116804D01*
X146470496Y-105113204D01*
X146495000Y-105112000D01*
X147445000Y-105112000D01*
X147469504Y-105113204D01*
G37*
G36*
X147469504Y-103213204D02*
G01*
X147493773Y-103216804D01*
X147517571Y-103222765D01*
X147540671Y-103231030D01*
X147562849Y-103241520D01*
X147583893Y-103254133D01*
X147603598Y-103268747D01*
X147621777Y-103285223D01*
X147638253Y-103303402D01*
X147652867Y-103323107D01*
X147665480Y-103344151D01*
X147675970Y-103366329D01*
X147684235Y-103389429D01*
X147690196Y-103413227D01*
X147693796Y-103437496D01*
X147695000Y-103462000D01*
X147695000Y-103962000D01*
X147693796Y-103986504D01*
X147690196Y-104010773D01*
X147684235Y-104034571D01*
X147675970Y-104057671D01*
X147665480Y-104079849D01*
X147652867Y-104100893D01*
X147638253Y-104120598D01*
X147621777Y-104138777D01*
X147603598Y-104155253D01*
X147583893Y-104169867D01*
X147562849Y-104182480D01*
X147540671Y-104192970D01*
X147517571Y-104201235D01*
X147493773Y-104207196D01*
X147469504Y-104210796D01*
X147445000Y-104212000D01*
X146495000Y-104212000D01*
X146470496Y-104210796D01*
X146446227Y-104207196D01*
X146422429Y-104201235D01*
X146399329Y-104192970D01*
X146377151Y-104182480D01*
X146356107Y-104169867D01*
X146336402Y-104155253D01*
X146318223Y-104138777D01*
X146301747Y-104120598D01*
X146287133Y-104100893D01*
X146274520Y-104079849D01*
X146264030Y-104057671D01*
X146255765Y-104034571D01*
X146249804Y-104010773D01*
X146246204Y-103986504D01*
X146245000Y-103962000D01*
X146245000Y-103462000D01*
X146246204Y-103437496D01*
X146249804Y-103413227D01*
X146255765Y-103389429D01*
X146264030Y-103366329D01*
X146274520Y-103344151D01*
X146287133Y-103323107D01*
X146301747Y-103303402D01*
X146318223Y-103285223D01*
X146336402Y-103268747D01*
X146356107Y-103254133D01*
X146377151Y-103241520D01*
X146399329Y-103231030D01*
X146422429Y-103222765D01*
X146446227Y-103216804D01*
X146470496Y-103213204D01*
X146495000Y-103212000D01*
X147445000Y-103212000D01*
X147469504Y-103213204D01*
G37*
%TD*%
%TO.C,C2*%
G36*
X156718504Y-102234204D02*
G01*
X156742773Y-102237804D01*
X156766571Y-102243765D01*
X156789671Y-102252030D01*
X156811849Y-102262520D01*
X156832893Y-102275133D01*
X156852598Y-102289747D01*
X156870777Y-102306223D01*
X156887253Y-102324402D01*
X156901867Y-102344107D01*
X156914480Y-102365151D01*
X156924970Y-102387329D01*
X156933235Y-102410429D01*
X156939196Y-102434227D01*
X156942796Y-102458496D01*
X156944000Y-102483000D01*
X156944000Y-102983000D01*
X156942796Y-103007504D01*
X156939196Y-103031773D01*
X156933235Y-103055571D01*
X156924970Y-103078671D01*
X156914480Y-103100849D01*
X156901867Y-103121893D01*
X156887253Y-103141598D01*
X156870777Y-103159777D01*
X156852598Y-103176253D01*
X156832893Y-103190867D01*
X156811849Y-103203480D01*
X156789671Y-103213970D01*
X156766571Y-103222235D01*
X156742773Y-103228196D01*
X156718504Y-103231796D01*
X156694000Y-103233000D01*
X155744000Y-103233000D01*
X155719496Y-103231796D01*
X155695227Y-103228196D01*
X155671429Y-103222235D01*
X155648329Y-103213970D01*
X155626151Y-103203480D01*
X155605107Y-103190867D01*
X155585402Y-103176253D01*
X155567223Y-103159777D01*
X155550747Y-103141598D01*
X155536133Y-103121893D01*
X155523520Y-103100849D01*
X155513030Y-103078671D01*
X155504765Y-103055571D01*
X155498804Y-103031773D01*
X155495204Y-103007504D01*
X155494000Y-102983000D01*
X155494000Y-102483000D01*
X155495204Y-102458496D01*
X155498804Y-102434227D01*
X155504765Y-102410429D01*
X155513030Y-102387329D01*
X155523520Y-102365151D01*
X155536133Y-102344107D01*
X155550747Y-102324402D01*
X155567223Y-102306223D01*
X155585402Y-102289747D01*
X155605107Y-102275133D01*
X155626151Y-102262520D01*
X155648329Y-102252030D01*
X155671429Y-102243765D01*
X155695227Y-102237804D01*
X155719496Y-102234204D01*
X155744000Y-102233000D01*
X156694000Y-102233000D01*
X156718504Y-102234204D01*
G37*
G36*
X156718504Y-104134204D02*
G01*
X156742773Y-104137804D01*
X156766571Y-104143765D01*
X156789671Y-104152030D01*
X156811849Y-104162520D01*
X156832893Y-104175133D01*
X156852598Y-104189747D01*
X156870777Y-104206223D01*
X156887253Y-104224402D01*
X156901867Y-104244107D01*
X156914480Y-104265151D01*
X156924970Y-104287329D01*
X156933235Y-104310429D01*
X156939196Y-104334227D01*
X156942796Y-104358496D01*
X156944000Y-104383000D01*
X156944000Y-104883000D01*
X156942796Y-104907504D01*
X156939196Y-104931773D01*
X156933235Y-104955571D01*
X156924970Y-104978671D01*
X156914480Y-105000849D01*
X156901867Y-105021893D01*
X156887253Y-105041598D01*
X156870777Y-105059777D01*
X156852598Y-105076253D01*
X156832893Y-105090867D01*
X156811849Y-105103480D01*
X156789671Y-105113970D01*
X156766571Y-105122235D01*
X156742773Y-105128196D01*
X156718504Y-105131796D01*
X156694000Y-105133000D01*
X155744000Y-105133000D01*
X155719496Y-105131796D01*
X155695227Y-105128196D01*
X155671429Y-105122235D01*
X155648329Y-105113970D01*
X155626151Y-105103480D01*
X155605107Y-105090867D01*
X155585402Y-105076253D01*
X155567223Y-105059777D01*
X155550747Y-105041598D01*
X155536133Y-105021893D01*
X155523520Y-105000849D01*
X155513030Y-104978671D01*
X155504765Y-104955571D01*
X155498804Y-104931773D01*
X155495204Y-104907504D01*
X155494000Y-104883000D01*
X155494000Y-104383000D01*
X155495204Y-104358496D01*
X155498804Y-104334227D01*
X155504765Y-104310429D01*
X155513030Y-104287329D01*
X155523520Y-104265151D01*
X155536133Y-104244107D01*
X155550747Y-104224402D01*
X155567223Y-104206223D01*
X155585402Y-104189747D01*
X155605107Y-104175133D01*
X155626151Y-104162520D01*
X155648329Y-104152030D01*
X155671429Y-104143765D01*
X155695227Y-104137804D01*
X155719496Y-104134204D01*
X155744000Y-104133000D01*
X156694000Y-104133000D01*
X156718504Y-104134204D01*
G37*
%TD*%
D15*
%TO.C,IC1*%
X148780000Y-108600000D03*
X148780000Y-109000000D03*
X148780000Y-109400000D03*
X148780000Y-109800000D03*
X148780000Y-110200000D03*
X148780000Y-110600000D03*
X148780000Y-111000000D03*
X148780000Y-111400000D03*
D16*
X149380000Y-112000000D03*
X149780000Y-112000000D03*
X150180000Y-112000000D03*
X150580000Y-112000000D03*
X150980000Y-112000000D03*
X151380000Y-112000000D03*
X151780000Y-112000000D03*
X152180000Y-112000000D03*
D15*
X152780000Y-111400000D03*
X152780000Y-111000000D03*
X152780000Y-110600000D03*
X152780000Y-110200000D03*
X152780000Y-109800000D03*
X152780000Y-109400000D03*
X152780000Y-109000000D03*
X152780000Y-108600000D03*
D16*
X152180000Y-108000000D03*
X151780000Y-108000000D03*
X151380000Y-108000000D03*
X150980000Y-108000000D03*
X150580000Y-108000000D03*
X150180000Y-108000000D03*
X149780000Y-108000000D03*
X149380000Y-108000000D03*
D17*
X150780000Y-110000000D03*
%TD*%
D18*
%TO.C,LED1*%
X150814851Y-74829068D03*
X149914851Y-74829068D03*
X149914851Y-73229068D03*
X150814851Y-73229068D03*
%TD*%
D19*
%TO.C,LED3*%
X118829068Y-105914851D03*
X118829068Y-106814851D03*
X117229068Y-106814851D03*
X117229068Y-105914851D03*
%TD*%
D11*
%TO.C,LED5*%
G36*
X174573204Y-83146447D02*
G01*
X174007519Y-83712132D01*
X173653966Y-83358579D01*
X174219651Y-82792894D01*
X174573204Y-83146447D01*
G37*
G36*
X173936808Y-82510051D02*
G01*
X173371123Y-83075736D01*
X173017570Y-82722183D01*
X173583255Y-82156498D01*
X173936808Y-82510051D01*
G37*
G36*
X172805438Y-83641421D02*
G01*
X172239753Y-84207106D01*
X171886200Y-83853553D01*
X172451885Y-83287868D01*
X172805438Y-83641421D01*
G37*
G36*
X173441834Y-84277817D02*
G01*
X172876149Y-84843502D01*
X172522596Y-84489949D01*
X173088281Y-83924264D01*
X173441834Y-84277817D01*
G37*
%TD*%
D19*
%TO.C,LED6*%
X181900634Y-106814851D03*
X181900634Y-105914851D03*
X183500634Y-105914851D03*
X183500634Y-106814851D03*
%TD*%
D18*
%TO.C,LED8*%
X149914851Y-139500634D03*
X150814851Y-139500634D03*
X150814851Y-137900634D03*
X149914851Y-137900634D03*
%TD*%
D11*
%TO.C,R3*%
G36*
X152474506Y-87513704D02*
G01*
X152498774Y-87517304D01*
X152522573Y-87523265D01*
X152545672Y-87531530D01*
X152567850Y-87542019D01*
X152588893Y-87554632D01*
X152608599Y-87569247D01*
X152626777Y-87585723D01*
X152643253Y-87603901D01*
X152657868Y-87623607D01*
X152670481Y-87644650D01*
X152680970Y-87666828D01*
X152689235Y-87689927D01*
X152695196Y-87713726D01*
X152698796Y-87737994D01*
X152700000Y-87762498D01*
X152700000Y-88287502D01*
X152698796Y-88312006D01*
X152695196Y-88336274D01*
X152689235Y-88360073D01*
X152680970Y-88383172D01*
X152670481Y-88405350D01*
X152657868Y-88426393D01*
X152643253Y-88446099D01*
X152626777Y-88464277D01*
X152608599Y-88480753D01*
X152588893Y-88495368D01*
X152567850Y-88507981D01*
X152545672Y-88518470D01*
X152522573Y-88526735D01*
X152498774Y-88532696D01*
X152474506Y-88536296D01*
X152450002Y-88537500D01*
X151549998Y-88537500D01*
X151525494Y-88536296D01*
X151501226Y-88532696D01*
X151477427Y-88526735D01*
X151454328Y-88518470D01*
X151432150Y-88507981D01*
X151411107Y-88495368D01*
X151391401Y-88480753D01*
X151373223Y-88464277D01*
X151356747Y-88446099D01*
X151342132Y-88426393D01*
X151329519Y-88405350D01*
X151319030Y-88383172D01*
X151310765Y-88360073D01*
X151304804Y-88336274D01*
X151301204Y-88312006D01*
X151300000Y-88287502D01*
X151300000Y-87762498D01*
X151301204Y-87737994D01*
X151304804Y-87713726D01*
X151310765Y-87689927D01*
X151319030Y-87666828D01*
X151329519Y-87644650D01*
X151342132Y-87623607D01*
X151356747Y-87603901D01*
X151373223Y-87585723D01*
X151391401Y-87569247D01*
X151411107Y-87554632D01*
X151432150Y-87542019D01*
X151454328Y-87531530D01*
X151477427Y-87523265D01*
X151501226Y-87517304D01*
X151525494Y-87513704D01*
X151549998Y-87512500D01*
X152450002Y-87512500D01*
X152474506Y-87513704D01*
G37*
G36*
X152474506Y-85688704D02*
G01*
X152498774Y-85692304D01*
X152522573Y-85698265D01*
X152545672Y-85706530D01*
X152567850Y-85717019D01*
X152588893Y-85729632D01*
X152608599Y-85744247D01*
X152626777Y-85760723D01*
X152643253Y-85778901D01*
X152657868Y-85798607D01*
X152670481Y-85819650D01*
X152680970Y-85841828D01*
X152689235Y-85864927D01*
X152695196Y-85888726D01*
X152698796Y-85912994D01*
X152700000Y-85937498D01*
X152700000Y-86462502D01*
X152698796Y-86487006D01*
X152695196Y-86511274D01*
X152689235Y-86535073D01*
X152680970Y-86558172D01*
X152670481Y-86580350D01*
X152657868Y-86601393D01*
X152643253Y-86621099D01*
X152626777Y-86639277D01*
X152608599Y-86655753D01*
X152588893Y-86670368D01*
X152567850Y-86682981D01*
X152545672Y-86693470D01*
X152522573Y-86701735D01*
X152498774Y-86707696D01*
X152474506Y-86711296D01*
X152450002Y-86712500D01*
X151549998Y-86712500D01*
X151525494Y-86711296D01*
X151501226Y-86707696D01*
X151477427Y-86701735D01*
X151454328Y-86693470D01*
X151432150Y-86682981D01*
X151411107Y-86670368D01*
X151391401Y-86655753D01*
X151373223Y-86639277D01*
X151356747Y-86621099D01*
X151342132Y-86601393D01*
X151329519Y-86580350D01*
X151319030Y-86558172D01*
X151310765Y-86535073D01*
X151304804Y-86511274D01*
X151301204Y-86487006D01*
X151300000Y-86462502D01*
X151300000Y-85937498D01*
X151301204Y-85912994D01*
X151304804Y-85888726D01*
X151310765Y-85864927D01*
X151319030Y-85841828D01*
X151329519Y-85819650D01*
X151342132Y-85798607D01*
X151356747Y-85778901D01*
X151373223Y-85760723D01*
X151391401Y-85744247D01*
X151411107Y-85729632D01*
X151432150Y-85717019D01*
X151454328Y-85706530D01*
X151477427Y-85698265D01*
X151501226Y-85692304D01*
X151525494Y-85688704D01*
X151549998Y-85687500D01*
X152450002Y-85687500D01*
X152474506Y-85688704D01*
G37*
%TD*%
%TO.C,R4*%
G36*
X150224506Y-87551204D02*
G01*
X150248774Y-87554804D01*
X150272573Y-87560765D01*
X150295672Y-87569030D01*
X150317850Y-87579519D01*
X150338893Y-87592132D01*
X150358599Y-87606747D01*
X150376777Y-87623223D01*
X150393253Y-87641401D01*
X150407868Y-87661107D01*
X150420481Y-87682150D01*
X150430970Y-87704328D01*
X150439235Y-87727427D01*
X150445196Y-87751226D01*
X150448796Y-87775494D01*
X150450000Y-87799998D01*
X150450000Y-88325002D01*
X150448796Y-88349506D01*
X150445196Y-88373774D01*
X150439235Y-88397573D01*
X150430970Y-88420672D01*
X150420481Y-88442850D01*
X150407868Y-88463893D01*
X150393253Y-88483599D01*
X150376777Y-88501777D01*
X150358599Y-88518253D01*
X150338893Y-88532868D01*
X150317850Y-88545481D01*
X150295672Y-88555970D01*
X150272573Y-88564235D01*
X150248774Y-88570196D01*
X150224506Y-88573796D01*
X150200002Y-88575000D01*
X149299998Y-88575000D01*
X149275494Y-88573796D01*
X149251226Y-88570196D01*
X149227427Y-88564235D01*
X149204328Y-88555970D01*
X149182150Y-88545481D01*
X149161107Y-88532868D01*
X149141401Y-88518253D01*
X149123223Y-88501777D01*
X149106747Y-88483599D01*
X149092132Y-88463893D01*
X149079519Y-88442850D01*
X149069030Y-88420672D01*
X149060765Y-88397573D01*
X149054804Y-88373774D01*
X149051204Y-88349506D01*
X149050000Y-88325002D01*
X149050000Y-87799998D01*
X149051204Y-87775494D01*
X149054804Y-87751226D01*
X149060765Y-87727427D01*
X149069030Y-87704328D01*
X149079519Y-87682150D01*
X149092132Y-87661107D01*
X149106747Y-87641401D01*
X149123223Y-87623223D01*
X149141401Y-87606747D01*
X149161107Y-87592132D01*
X149182150Y-87579519D01*
X149204328Y-87569030D01*
X149227427Y-87560765D01*
X149251226Y-87554804D01*
X149275494Y-87551204D01*
X149299998Y-87550000D01*
X150200002Y-87550000D01*
X150224506Y-87551204D01*
G37*
G36*
X150224506Y-85726204D02*
G01*
X150248774Y-85729804D01*
X150272573Y-85735765D01*
X150295672Y-85744030D01*
X150317850Y-85754519D01*
X150338893Y-85767132D01*
X150358599Y-85781747D01*
X150376777Y-85798223D01*
X150393253Y-85816401D01*
X150407868Y-85836107D01*
X150420481Y-85857150D01*
X150430970Y-85879328D01*
X150439235Y-85902427D01*
X150445196Y-85926226D01*
X150448796Y-85950494D01*
X150450000Y-85974998D01*
X150450000Y-86500002D01*
X150448796Y-86524506D01*
X150445196Y-86548774D01*
X150439235Y-86572573D01*
X150430970Y-86595672D01*
X150420481Y-86617850D01*
X150407868Y-86638893D01*
X150393253Y-86658599D01*
X150376777Y-86676777D01*
X150358599Y-86693253D01*
X150338893Y-86707868D01*
X150317850Y-86720481D01*
X150295672Y-86730970D01*
X150272573Y-86739235D01*
X150248774Y-86745196D01*
X150224506Y-86748796D01*
X150200002Y-86750000D01*
X149299998Y-86750000D01*
X149275494Y-86748796D01*
X149251226Y-86745196D01*
X149227427Y-86739235D01*
X149204328Y-86730970D01*
X149182150Y-86720481D01*
X149161107Y-86707868D01*
X149141401Y-86693253D01*
X149123223Y-86676777D01*
X149106747Y-86658599D01*
X149092132Y-86638893D01*
X149079519Y-86617850D01*
X149069030Y-86595672D01*
X149060765Y-86572573D01*
X149054804Y-86548774D01*
X149051204Y-86524506D01*
X149050000Y-86500002D01*
X149050000Y-85974998D01*
X149051204Y-85950494D01*
X149054804Y-85926226D01*
X149060765Y-85902427D01*
X149069030Y-85879328D01*
X149079519Y-85857150D01*
X149092132Y-85836107D01*
X149106747Y-85816401D01*
X149123223Y-85798223D01*
X149141401Y-85781747D01*
X149161107Y-85767132D01*
X149182150Y-85754519D01*
X149204328Y-85744030D01*
X149227427Y-85735765D01*
X149251226Y-85729804D01*
X149275494Y-85726204D01*
X149299998Y-85725000D01*
X150200002Y-85725000D01*
X150224506Y-85726204D01*
G37*
%TD*%
%TO.C,R5*%
G36*
X147974506Y-87551204D02*
G01*
X147998774Y-87554804D01*
X148022573Y-87560765D01*
X148045672Y-87569030D01*
X148067850Y-87579519D01*
X148088893Y-87592132D01*
X148108599Y-87606747D01*
X148126777Y-87623223D01*
X148143253Y-87641401D01*
X148157868Y-87661107D01*
X148170481Y-87682150D01*
X148180970Y-87704328D01*
X148189235Y-87727427D01*
X148195196Y-87751226D01*
X148198796Y-87775494D01*
X148200000Y-87799998D01*
X148200000Y-88325002D01*
X148198796Y-88349506D01*
X148195196Y-88373774D01*
X148189235Y-88397573D01*
X148180970Y-88420672D01*
X148170481Y-88442850D01*
X148157868Y-88463893D01*
X148143253Y-88483599D01*
X148126777Y-88501777D01*
X148108599Y-88518253D01*
X148088893Y-88532868D01*
X148067850Y-88545481D01*
X148045672Y-88555970D01*
X148022573Y-88564235D01*
X147998774Y-88570196D01*
X147974506Y-88573796D01*
X147950002Y-88575000D01*
X147049998Y-88575000D01*
X147025494Y-88573796D01*
X147001226Y-88570196D01*
X146977427Y-88564235D01*
X146954328Y-88555970D01*
X146932150Y-88545481D01*
X146911107Y-88532868D01*
X146891401Y-88518253D01*
X146873223Y-88501777D01*
X146856747Y-88483599D01*
X146842132Y-88463893D01*
X146829519Y-88442850D01*
X146819030Y-88420672D01*
X146810765Y-88397573D01*
X146804804Y-88373774D01*
X146801204Y-88349506D01*
X146800000Y-88325002D01*
X146800000Y-87799998D01*
X146801204Y-87775494D01*
X146804804Y-87751226D01*
X146810765Y-87727427D01*
X146819030Y-87704328D01*
X146829519Y-87682150D01*
X146842132Y-87661107D01*
X146856747Y-87641401D01*
X146873223Y-87623223D01*
X146891401Y-87606747D01*
X146911107Y-87592132D01*
X146932150Y-87579519D01*
X146954328Y-87569030D01*
X146977427Y-87560765D01*
X147001226Y-87554804D01*
X147025494Y-87551204D01*
X147049998Y-87550000D01*
X147950002Y-87550000D01*
X147974506Y-87551204D01*
G37*
G36*
X147974506Y-85726204D02*
G01*
X147998774Y-85729804D01*
X148022573Y-85735765D01*
X148045672Y-85744030D01*
X148067850Y-85754519D01*
X148088893Y-85767132D01*
X148108599Y-85781747D01*
X148126777Y-85798223D01*
X148143253Y-85816401D01*
X148157868Y-85836107D01*
X148170481Y-85857150D01*
X148180970Y-85879328D01*
X148189235Y-85902427D01*
X148195196Y-85926226D01*
X148198796Y-85950494D01*
X148200000Y-85974998D01*
X148200000Y-86500002D01*
X148198796Y-86524506D01*
X148195196Y-86548774D01*
X148189235Y-86572573D01*
X148180970Y-86595672D01*
X148170481Y-86617850D01*
X148157868Y-86638893D01*
X148143253Y-86658599D01*
X148126777Y-86676777D01*
X148108599Y-86693253D01*
X148088893Y-86707868D01*
X148067850Y-86720481D01*
X148045672Y-86730970D01*
X148022573Y-86739235D01*
X147998774Y-86745196D01*
X147974506Y-86748796D01*
X147950002Y-86750000D01*
X147049998Y-86750000D01*
X147025494Y-86748796D01*
X147001226Y-86745196D01*
X146977427Y-86739235D01*
X146954328Y-86730970D01*
X146932150Y-86720481D01*
X146911107Y-86707868D01*
X146891401Y-86693253D01*
X146873223Y-86676777D01*
X146856747Y-86658599D01*
X146842132Y-86638893D01*
X146829519Y-86617850D01*
X146819030Y-86595672D01*
X146810765Y-86572573D01*
X146804804Y-86548774D01*
X146801204Y-86524506D01*
X146800000Y-86500002D01*
X146800000Y-85974998D01*
X146801204Y-85950494D01*
X146804804Y-85926226D01*
X146810765Y-85902427D01*
X146819030Y-85879328D01*
X146829519Y-85857150D01*
X146842132Y-85836107D01*
X146856747Y-85816401D01*
X146873223Y-85798223D01*
X146891401Y-85781747D01*
X146911107Y-85767132D01*
X146932150Y-85754519D01*
X146954328Y-85744030D01*
X146977427Y-85735765D01*
X147001226Y-85729804D01*
X147025494Y-85726204D01*
X147049998Y-85725000D01*
X147950002Y-85725000D01*
X147974506Y-85726204D01*
G37*
%TD*%
%TO.C,R6*%
G36*
X137362006Y-89901204D02*
G01*
X137386274Y-89904804D01*
X137410073Y-89910765D01*
X137433172Y-89919030D01*
X137455350Y-89929519D01*
X137476393Y-89942132D01*
X137496099Y-89956747D01*
X137514277Y-89973223D01*
X137530753Y-89991401D01*
X137545368Y-90011107D01*
X137557981Y-90032150D01*
X137568470Y-90054328D01*
X137576735Y-90077427D01*
X137582696Y-90101226D01*
X137586296Y-90125494D01*
X137587500Y-90149998D01*
X137587500Y-91050002D01*
X137586296Y-91074506D01*
X137582696Y-91098774D01*
X137576735Y-91122573D01*
X137568470Y-91145672D01*
X137557981Y-91167850D01*
X137545368Y-91188893D01*
X137530753Y-91208599D01*
X137514277Y-91226777D01*
X137496099Y-91243253D01*
X137476393Y-91257868D01*
X137455350Y-91270481D01*
X137433172Y-91280970D01*
X137410073Y-91289235D01*
X137386274Y-91295196D01*
X137362006Y-91298796D01*
X137337502Y-91300000D01*
X136812498Y-91300000D01*
X136787994Y-91298796D01*
X136763726Y-91295196D01*
X136739927Y-91289235D01*
X136716828Y-91280970D01*
X136694650Y-91270481D01*
X136673607Y-91257868D01*
X136653901Y-91243253D01*
X136635723Y-91226777D01*
X136619247Y-91208599D01*
X136604632Y-91188893D01*
X136592019Y-91167850D01*
X136581530Y-91145672D01*
X136573265Y-91122573D01*
X136567304Y-91098774D01*
X136563704Y-91074506D01*
X136562500Y-91050002D01*
X136562500Y-90149998D01*
X136563704Y-90125494D01*
X136567304Y-90101226D01*
X136573265Y-90077427D01*
X136581530Y-90054328D01*
X136592019Y-90032150D01*
X136604632Y-90011107D01*
X136619247Y-89991401D01*
X136635723Y-89973223D01*
X136653901Y-89956747D01*
X136673607Y-89942132D01*
X136694650Y-89929519D01*
X136716828Y-89919030D01*
X136739927Y-89910765D01*
X136763726Y-89904804D01*
X136787994Y-89901204D01*
X136812498Y-89900000D01*
X137337502Y-89900000D01*
X137362006Y-89901204D01*
G37*
G36*
X139187006Y-89901204D02*
G01*
X139211274Y-89904804D01*
X139235073Y-89910765D01*
X139258172Y-89919030D01*
X139280350Y-89929519D01*
X139301393Y-89942132D01*
X139321099Y-89956747D01*
X139339277Y-89973223D01*
X139355753Y-89991401D01*
X139370368Y-90011107D01*
X139382981Y-90032150D01*
X139393470Y-90054328D01*
X139401735Y-90077427D01*
X139407696Y-90101226D01*
X139411296Y-90125494D01*
X139412500Y-90149998D01*
X139412500Y-91050002D01*
X139411296Y-91074506D01*
X139407696Y-91098774D01*
X139401735Y-91122573D01*
X139393470Y-91145672D01*
X139382981Y-91167850D01*
X139370368Y-91188893D01*
X139355753Y-91208599D01*
X139339277Y-91226777D01*
X139321099Y-91243253D01*
X139301393Y-91257868D01*
X139280350Y-91270481D01*
X139258172Y-91280970D01*
X139235073Y-91289235D01*
X139211274Y-91295196D01*
X139187006Y-91298796D01*
X139162502Y-91300000D01*
X138637498Y-91300000D01*
X138612994Y-91298796D01*
X138588726Y-91295196D01*
X138564927Y-91289235D01*
X138541828Y-91280970D01*
X138519650Y-91270481D01*
X138498607Y-91257868D01*
X138478901Y-91243253D01*
X138460723Y-91226777D01*
X138444247Y-91208599D01*
X138429632Y-91188893D01*
X138417019Y-91167850D01*
X138406530Y-91145672D01*
X138398265Y-91122573D01*
X138392304Y-91098774D01*
X138388704Y-91074506D01*
X138387500Y-91050002D01*
X138387500Y-90149998D01*
X138388704Y-90125494D01*
X138392304Y-90101226D01*
X138398265Y-90077427D01*
X138406530Y-90054328D01*
X138417019Y-90032150D01*
X138429632Y-90011107D01*
X138444247Y-89991401D01*
X138460723Y-89973223D01*
X138478901Y-89956747D01*
X138498607Y-89942132D01*
X138519650Y-89929519D01*
X138541828Y-89919030D01*
X138564927Y-89910765D01*
X138588726Y-89904804D01*
X138612994Y-89901204D01*
X138637498Y-89900000D01*
X139162502Y-89900000D01*
X139187006Y-89901204D01*
G37*
%TD*%
%TO.C,R9*%
G36*
X129087006Y-103551204D02*
G01*
X129111274Y-103554804D01*
X129135073Y-103560765D01*
X129158172Y-103569030D01*
X129180350Y-103579519D01*
X129201393Y-103592132D01*
X129221099Y-103606747D01*
X129239277Y-103623223D01*
X129255753Y-103641401D01*
X129270368Y-103661107D01*
X129282981Y-103682150D01*
X129293470Y-103704328D01*
X129301735Y-103727427D01*
X129307696Y-103751226D01*
X129311296Y-103775494D01*
X129312500Y-103799998D01*
X129312500Y-104700002D01*
X129311296Y-104724506D01*
X129307696Y-104748774D01*
X129301735Y-104772573D01*
X129293470Y-104795672D01*
X129282981Y-104817850D01*
X129270368Y-104838893D01*
X129255753Y-104858599D01*
X129239277Y-104876777D01*
X129221099Y-104893253D01*
X129201393Y-104907868D01*
X129180350Y-104920481D01*
X129158172Y-104930970D01*
X129135073Y-104939235D01*
X129111274Y-104945196D01*
X129087006Y-104948796D01*
X129062502Y-104950000D01*
X128537498Y-104950000D01*
X128512994Y-104948796D01*
X128488726Y-104945196D01*
X128464927Y-104939235D01*
X128441828Y-104930970D01*
X128419650Y-104920481D01*
X128398607Y-104907868D01*
X128378901Y-104893253D01*
X128360723Y-104876777D01*
X128344247Y-104858599D01*
X128329632Y-104838893D01*
X128317019Y-104817850D01*
X128306530Y-104795672D01*
X128298265Y-104772573D01*
X128292304Y-104748774D01*
X128288704Y-104724506D01*
X128287500Y-104700002D01*
X128287500Y-103799998D01*
X128288704Y-103775494D01*
X128292304Y-103751226D01*
X128298265Y-103727427D01*
X128306530Y-103704328D01*
X128317019Y-103682150D01*
X128329632Y-103661107D01*
X128344247Y-103641401D01*
X128360723Y-103623223D01*
X128378901Y-103606747D01*
X128398607Y-103592132D01*
X128419650Y-103579519D01*
X128441828Y-103569030D01*
X128464927Y-103560765D01*
X128488726Y-103554804D01*
X128512994Y-103551204D01*
X128537498Y-103550000D01*
X129062502Y-103550000D01*
X129087006Y-103551204D01*
G37*
G36*
X127262006Y-103551204D02*
G01*
X127286274Y-103554804D01*
X127310073Y-103560765D01*
X127333172Y-103569030D01*
X127355350Y-103579519D01*
X127376393Y-103592132D01*
X127396099Y-103606747D01*
X127414277Y-103623223D01*
X127430753Y-103641401D01*
X127445368Y-103661107D01*
X127457981Y-103682150D01*
X127468470Y-103704328D01*
X127476735Y-103727427D01*
X127482696Y-103751226D01*
X127486296Y-103775494D01*
X127487500Y-103799998D01*
X127487500Y-104700002D01*
X127486296Y-104724506D01*
X127482696Y-104748774D01*
X127476735Y-104772573D01*
X127468470Y-104795672D01*
X127457981Y-104817850D01*
X127445368Y-104838893D01*
X127430753Y-104858599D01*
X127414277Y-104876777D01*
X127396099Y-104893253D01*
X127376393Y-104907868D01*
X127355350Y-104920481D01*
X127333172Y-104930970D01*
X127310073Y-104939235D01*
X127286274Y-104945196D01*
X127262006Y-104948796D01*
X127237502Y-104950000D01*
X126712498Y-104950000D01*
X126687994Y-104948796D01*
X126663726Y-104945196D01*
X126639927Y-104939235D01*
X126616828Y-104930970D01*
X126594650Y-104920481D01*
X126573607Y-104907868D01*
X126553901Y-104893253D01*
X126535723Y-104876777D01*
X126519247Y-104858599D01*
X126504632Y-104838893D01*
X126492019Y-104817850D01*
X126481530Y-104795672D01*
X126473265Y-104772573D01*
X126467304Y-104748774D01*
X126463704Y-104724506D01*
X126462500Y-104700002D01*
X126462500Y-103799998D01*
X126463704Y-103775494D01*
X126467304Y-103751226D01*
X126473265Y-103727427D01*
X126481530Y-103704328D01*
X126492019Y-103682150D01*
X126504632Y-103661107D01*
X126519247Y-103641401D01*
X126535723Y-103623223D01*
X126553901Y-103606747D01*
X126573607Y-103592132D01*
X126594650Y-103579519D01*
X126616828Y-103569030D01*
X126639927Y-103560765D01*
X126663726Y-103554804D01*
X126687994Y-103551204D01*
X126712498Y-103550000D01*
X127237502Y-103550000D01*
X127262006Y-103551204D01*
G37*
%TD*%
%TO.C,R10*%
G36*
X127262006Y-105801204D02*
G01*
X127286274Y-105804804D01*
X127310073Y-105810765D01*
X127333172Y-105819030D01*
X127355350Y-105829519D01*
X127376393Y-105842132D01*
X127396099Y-105856747D01*
X127414277Y-105873223D01*
X127430753Y-105891401D01*
X127445368Y-105911107D01*
X127457981Y-105932150D01*
X127468470Y-105954328D01*
X127476735Y-105977427D01*
X127482696Y-106001226D01*
X127486296Y-106025494D01*
X127487500Y-106049998D01*
X127487500Y-106950002D01*
X127486296Y-106974506D01*
X127482696Y-106998774D01*
X127476735Y-107022573D01*
X127468470Y-107045672D01*
X127457981Y-107067850D01*
X127445368Y-107088893D01*
X127430753Y-107108599D01*
X127414277Y-107126777D01*
X127396099Y-107143253D01*
X127376393Y-107157868D01*
X127355350Y-107170481D01*
X127333172Y-107180970D01*
X127310073Y-107189235D01*
X127286274Y-107195196D01*
X127262006Y-107198796D01*
X127237502Y-107200000D01*
X126712498Y-107200000D01*
X126687994Y-107198796D01*
X126663726Y-107195196D01*
X126639927Y-107189235D01*
X126616828Y-107180970D01*
X126594650Y-107170481D01*
X126573607Y-107157868D01*
X126553901Y-107143253D01*
X126535723Y-107126777D01*
X126519247Y-107108599D01*
X126504632Y-107088893D01*
X126492019Y-107067850D01*
X126481530Y-107045672D01*
X126473265Y-107022573D01*
X126467304Y-106998774D01*
X126463704Y-106974506D01*
X126462500Y-106950002D01*
X126462500Y-106049998D01*
X126463704Y-106025494D01*
X126467304Y-106001226D01*
X126473265Y-105977427D01*
X126481530Y-105954328D01*
X126492019Y-105932150D01*
X126504632Y-105911107D01*
X126519247Y-105891401D01*
X126535723Y-105873223D01*
X126553901Y-105856747D01*
X126573607Y-105842132D01*
X126594650Y-105829519D01*
X126616828Y-105819030D01*
X126639927Y-105810765D01*
X126663726Y-105804804D01*
X126687994Y-105801204D01*
X126712498Y-105800000D01*
X127237502Y-105800000D01*
X127262006Y-105801204D01*
G37*
G36*
X129087006Y-105801204D02*
G01*
X129111274Y-105804804D01*
X129135073Y-105810765D01*
X129158172Y-105819030D01*
X129180350Y-105829519D01*
X129201393Y-105842132D01*
X129221099Y-105856747D01*
X129239277Y-105873223D01*
X129255753Y-105891401D01*
X129270368Y-105911107D01*
X129282981Y-105932150D01*
X129293470Y-105954328D01*
X129301735Y-105977427D01*
X129307696Y-106001226D01*
X129311296Y-106025494D01*
X129312500Y-106049998D01*
X129312500Y-106950002D01*
X129311296Y-106974506D01*
X129307696Y-106998774D01*
X129301735Y-107022573D01*
X129293470Y-107045672D01*
X129282981Y-107067850D01*
X129270368Y-107088893D01*
X129255753Y-107108599D01*
X129239277Y-107126777D01*
X129221099Y-107143253D01*
X129201393Y-107157868D01*
X129180350Y-107170481D01*
X129158172Y-107180970D01*
X129135073Y-107189235D01*
X129111274Y-107195196D01*
X129087006Y-107198796D01*
X129062502Y-107200000D01*
X128537498Y-107200000D01*
X128512994Y-107198796D01*
X128488726Y-107195196D01*
X128464927Y-107189235D01*
X128441828Y-107180970D01*
X128419650Y-107170481D01*
X128398607Y-107157868D01*
X128378901Y-107143253D01*
X128360723Y-107126777D01*
X128344247Y-107108599D01*
X128329632Y-107088893D01*
X128317019Y-107067850D01*
X128306530Y-107045672D01*
X128298265Y-107022573D01*
X128292304Y-106998774D01*
X128288704Y-106974506D01*
X128287500Y-106950002D01*
X128287500Y-106049998D01*
X128288704Y-106025494D01*
X128292304Y-106001226D01*
X128298265Y-105977427D01*
X128306530Y-105954328D01*
X128317019Y-105932150D01*
X128329632Y-105911107D01*
X128344247Y-105891401D01*
X128360723Y-105873223D01*
X128378901Y-105856747D01*
X128398607Y-105842132D01*
X128419650Y-105829519D01*
X128441828Y-105819030D01*
X128464927Y-105810765D01*
X128488726Y-105804804D01*
X128512994Y-105801204D01*
X128537498Y-105800000D01*
X129062502Y-105800000D01*
X129087006Y-105801204D01*
G37*
%TD*%
%TO.C,R11*%
G36*
X129087006Y-108051204D02*
G01*
X129111274Y-108054804D01*
X129135073Y-108060765D01*
X129158172Y-108069030D01*
X129180350Y-108079519D01*
X129201393Y-108092132D01*
X129221099Y-108106747D01*
X129239277Y-108123223D01*
X129255753Y-108141401D01*
X129270368Y-108161107D01*
X129282981Y-108182150D01*
X129293470Y-108204328D01*
X129301735Y-108227427D01*
X129307696Y-108251226D01*
X129311296Y-108275494D01*
X129312500Y-108299998D01*
X129312500Y-109200002D01*
X129311296Y-109224506D01*
X129307696Y-109248774D01*
X129301735Y-109272573D01*
X129293470Y-109295672D01*
X129282981Y-109317850D01*
X129270368Y-109338893D01*
X129255753Y-109358599D01*
X129239277Y-109376777D01*
X129221099Y-109393253D01*
X129201393Y-109407868D01*
X129180350Y-109420481D01*
X129158172Y-109430970D01*
X129135073Y-109439235D01*
X129111274Y-109445196D01*
X129087006Y-109448796D01*
X129062502Y-109450000D01*
X128537498Y-109450000D01*
X128512994Y-109448796D01*
X128488726Y-109445196D01*
X128464927Y-109439235D01*
X128441828Y-109430970D01*
X128419650Y-109420481D01*
X128398607Y-109407868D01*
X128378901Y-109393253D01*
X128360723Y-109376777D01*
X128344247Y-109358599D01*
X128329632Y-109338893D01*
X128317019Y-109317850D01*
X128306530Y-109295672D01*
X128298265Y-109272573D01*
X128292304Y-109248774D01*
X128288704Y-109224506D01*
X128287500Y-109200002D01*
X128287500Y-108299998D01*
X128288704Y-108275494D01*
X128292304Y-108251226D01*
X128298265Y-108227427D01*
X128306530Y-108204328D01*
X128317019Y-108182150D01*
X128329632Y-108161107D01*
X128344247Y-108141401D01*
X128360723Y-108123223D01*
X128378901Y-108106747D01*
X128398607Y-108092132D01*
X128419650Y-108079519D01*
X128441828Y-108069030D01*
X128464927Y-108060765D01*
X128488726Y-108054804D01*
X128512994Y-108051204D01*
X128537498Y-108050000D01*
X129062502Y-108050000D01*
X129087006Y-108051204D01*
G37*
G36*
X127262006Y-108051204D02*
G01*
X127286274Y-108054804D01*
X127310073Y-108060765D01*
X127333172Y-108069030D01*
X127355350Y-108079519D01*
X127376393Y-108092132D01*
X127396099Y-108106747D01*
X127414277Y-108123223D01*
X127430753Y-108141401D01*
X127445368Y-108161107D01*
X127457981Y-108182150D01*
X127468470Y-108204328D01*
X127476735Y-108227427D01*
X127482696Y-108251226D01*
X127486296Y-108275494D01*
X127487500Y-108299998D01*
X127487500Y-109200002D01*
X127486296Y-109224506D01*
X127482696Y-109248774D01*
X127476735Y-109272573D01*
X127468470Y-109295672D01*
X127457981Y-109317850D01*
X127445368Y-109338893D01*
X127430753Y-109358599D01*
X127414277Y-109376777D01*
X127396099Y-109393253D01*
X127376393Y-109407868D01*
X127355350Y-109420481D01*
X127333172Y-109430970D01*
X127310073Y-109439235D01*
X127286274Y-109445196D01*
X127262006Y-109448796D01*
X127237502Y-109450000D01*
X126712498Y-109450000D01*
X126687994Y-109448796D01*
X126663726Y-109445196D01*
X126639927Y-109439235D01*
X126616828Y-109430970D01*
X126594650Y-109420481D01*
X126573607Y-109407868D01*
X126553901Y-109393253D01*
X126535723Y-109376777D01*
X126519247Y-109358599D01*
X126504632Y-109338893D01*
X126492019Y-109317850D01*
X126481530Y-109295672D01*
X126473265Y-109272573D01*
X126467304Y-109248774D01*
X126463704Y-109224506D01*
X126462500Y-109200002D01*
X126462500Y-108299998D01*
X126463704Y-108275494D01*
X126467304Y-108251226D01*
X126473265Y-108227427D01*
X126481530Y-108204328D01*
X126492019Y-108182150D01*
X126504632Y-108161107D01*
X126519247Y-108141401D01*
X126535723Y-108123223D01*
X126553901Y-108106747D01*
X126573607Y-108092132D01*
X126594650Y-108079519D01*
X126616828Y-108069030D01*
X126639927Y-108060765D01*
X126663726Y-108054804D01*
X126687994Y-108051204D01*
X126712498Y-108050000D01*
X127237502Y-108050000D01*
X127262006Y-108051204D01*
G37*
%TD*%
%TO.C,R12*%
G36*
X136212006Y-116301204D02*
G01*
X136236274Y-116304804D01*
X136260073Y-116310765D01*
X136283172Y-116319030D01*
X136305350Y-116329519D01*
X136326393Y-116342132D01*
X136346099Y-116356747D01*
X136364277Y-116373223D01*
X136380753Y-116391401D01*
X136395368Y-116411107D01*
X136407981Y-116432150D01*
X136418470Y-116454328D01*
X136426735Y-116477427D01*
X136432696Y-116501226D01*
X136436296Y-116525494D01*
X136437500Y-116549998D01*
X136437500Y-117450002D01*
X136436296Y-117474506D01*
X136432696Y-117498774D01*
X136426735Y-117522573D01*
X136418470Y-117545672D01*
X136407981Y-117567850D01*
X136395368Y-117588893D01*
X136380753Y-117608599D01*
X136364277Y-117626777D01*
X136346099Y-117643253D01*
X136326393Y-117657868D01*
X136305350Y-117670481D01*
X136283172Y-117680970D01*
X136260073Y-117689235D01*
X136236274Y-117695196D01*
X136212006Y-117698796D01*
X136187502Y-117700000D01*
X135662498Y-117700000D01*
X135637994Y-117698796D01*
X135613726Y-117695196D01*
X135589927Y-117689235D01*
X135566828Y-117680970D01*
X135544650Y-117670481D01*
X135523607Y-117657868D01*
X135503901Y-117643253D01*
X135485723Y-117626777D01*
X135469247Y-117608599D01*
X135454632Y-117588893D01*
X135442019Y-117567850D01*
X135431530Y-117545672D01*
X135423265Y-117522573D01*
X135417304Y-117498774D01*
X135413704Y-117474506D01*
X135412500Y-117450002D01*
X135412500Y-116549998D01*
X135413704Y-116525494D01*
X135417304Y-116501226D01*
X135423265Y-116477427D01*
X135431530Y-116454328D01*
X135442019Y-116432150D01*
X135454632Y-116411107D01*
X135469247Y-116391401D01*
X135485723Y-116373223D01*
X135503901Y-116356747D01*
X135523607Y-116342132D01*
X135544650Y-116329519D01*
X135566828Y-116319030D01*
X135589927Y-116310765D01*
X135613726Y-116304804D01*
X135637994Y-116301204D01*
X135662498Y-116300000D01*
X136187502Y-116300000D01*
X136212006Y-116301204D01*
G37*
G36*
X138037006Y-116301204D02*
G01*
X138061274Y-116304804D01*
X138085073Y-116310765D01*
X138108172Y-116319030D01*
X138130350Y-116329519D01*
X138151393Y-116342132D01*
X138171099Y-116356747D01*
X138189277Y-116373223D01*
X138205753Y-116391401D01*
X138220368Y-116411107D01*
X138232981Y-116432150D01*
X138243470Y-116454328D01*
X138251735Y-116477427D01*
X138257696Y-116501226D01*
X138261296Y-116525494D01*
X138262500Y-116549998D01*
X138262500Y-117450002D01*
X138261296Y-117474506D01*
X138257696Y-117498774D01*
X138251735Y-117522573D01*
X138243470Y-117545672D01*
X138232981Y-117567850D01*
X138220368Y-117588893D01*
X138205753Y-117608599D01*
X138189277Y-117626777D01*
X138171099Y-117643253D01*
X138151393Y-117657868D01*
X138130350Y-117670481D01*
X138108172Y-117680970D01*
X138085073Y-117689235D01*
X138061274Y-117695196D01*
X138037006Y-117698796D01*
X138012502Y-117700000D01*
X137487498Y-117700000D01*
X137462994Y-117698796D01*
X137438726Y-117695196D01*
X137414927Y-117689235D01*
X137391828Y-117680970D01*
X137369650Y-117670481D01*
X137348607Y-117657868D01*
X137328901Y-117643253D01*
X137310723Y-117626777D01*
X137294247Y-117608599D01*
X137279632Y-117588893D01*
X137267019Y-117567850D01*
X137256530Y-117545672D01*
X137248265Y-117522573D01*
X137242304Y-117498774D01*
X137238704Y-117474506D01*
X137237500Y-117450002D01*
X137237500Y-116549998D01*
X137238704Y-116525494D01*
X137242304Y-116501226D01*
X137248265Y-116477427D01*
X137256530Y-116454328D01*
X137267019Y-116432150D01*
X137279632Y-116411107D01*
X137294247Y-116391401D01*
X137310723Y-116373223D01*
X137328901Y-116356747D01*
X137348607Y-116342132D01*
X137369650Y-116329519D01*
X137391828Y-116319030D01*
X137414927Y-116310765D01*
X137438726Y-116304804D01*
X137462994Y-116301204D01*
X137487498Y-116300000D01*
X138012502Y-116300000D01*
X138037006Y-116301204D01*
G37*
%TD*%
%TO.C,R13*%
G36*
X138037006Y-118551204D02*
G01*
X138061274Y-118554804D01*
X138085073Y-118560765D01*
X138108172Y-118569030D01*
X138130350Y-118579519D01*
X138151393Y-118592132D01*
X138171099Y-118606747D01*
X138189277Y-118623223D01*
X138205753Y-118641401D01*
X138220368Y-118661107D01*
X138232981Y-118682150D01*
X138243470Y-118704328D01*
X138251735Y-118727427D01*
X138257696Y-118751226D01*
X138261296Y-118775494D01*
X138262500Y-118799998D01*
X138262500Y-119700002D01*
X138261296Y-119724506D01*
X138257696Y-119748774D01*
X138251735Y-119772573D01*
X138243470Y-119795672D01*
X138232981Y-119817850D01*
X138220368Y-119838893D01*
X138205753Y-119858599D01*
X138189277Y-119876777D01*
X138171099Y-119893253D01*
X138151393Y-119907868D01*
X138130350Y-119920481D01*
X138108172Y-119930970D01*
X138085073Y-119939235D01*
X138061274Y-119945196D01*
X138037006Y-119948796D01*
X138012502Y-119950000D01*
X137487498Y-119950000D01*
X137462994Y-119948796D01*
X137438726Y-119945196D01*
X137414927Y-119939235D01*
X137391828Y-119930970D01*
X137369650Y-119920481D01*
X137348607Y-119907868D01*
X137328901Y-119893253D01*
X137310723Y-119876777D01*
X137294247Y-119858599D01*
X137279632Y-119838893D01*
X137267019Y-119817850D01*
X137256530Y-119795672D01*
X137248265Y-119772573D01*
X137242304Y-119748774D01*
X137238704Y-119724506D01*
X137237500Y-119700002D01*
X137237500Y-118799998D01*
X137238704Y-118775494D01*
X137242304Y-118751226D01*
X137248265Y-118727427D01*
X137256530Y-118704328D01*
X137267019Y-118682150D01*
X137279632Y-118661107D01*
X137294247Y-118641401D01*
X137310723Y-118623223D01*
X137328901Y-118606747D01*
X137348607Y-118592132D01*
X137369650Y-118579519D01*
X137391828Y-118569030D01*
X137414927Y-118560765D01*
X137438726Y-118554804D01*
X137462994Y-118551204D01*
X137487498Y-118550000D01*
X138012502Y-118550000D01*
X138037006Y-118551204D01*
G37*
G36*
X136212006Y-118551204D02*
G01*
X136236274Y-118554804D01*
X136260073Y-118560765D01*
X136283172Y-118569030D01*
X136305350Y-118579519D01*
X136326393Y-118592132D01*
X136346099Y-118606747D01*
X136364277Y-118623223D01*
X136380753Y-118641401D01*
X136395368Y-118661107D01*
X136407981Y-118682150D01*
X136418470Y-118704328D01*
X136426735Y-118727427D01*
X136432696Y-118751226D01*
X136436296Y-118775494D01*
X136437500Y-118799998D01*
X136437500Y-119700002D01*
X136436296Y-119724506D01*
X136432696Y-119748774D01*
X136426735Y-119772573D01*
X136418470Y-119795672D01*
X136407981Y-119817850D01*
X136395368Y-119838893D01*
X136380753Y-119858599D01*
X136364277Y-119876777D01*
X136346099Y-119893253D01*
X136326393Y-119907868D01*
X136305350Y-119920481D01*
X136283172Y-119930970D01*
X136260073Y-119939235D01*
X136236274Y-119945196D01*
X136212006Y-119948796D01*
X136187502Y-119950000D01*
X135662498Y-119950000D01*
X135637994Y-119948796D01*
X135613726Y-119945196D01*
X135589927Y-119939235D01*
X135566828Y-119930970D01*
X135544650Y-119920481D01*
X135523607Y-119907868D01*
X135503901Y-119893253D01*
X135485723Y-119876777D01*
X135469247Y-119858599D01*
X135454632Y-119838893D01*
X135442019Y-119817850D01*
X135431530Y-119795672D01*
X135423265Y-119772573D01*
X135417304Y-119748774D01*
X135413704Y-119724506D01*
X135412500Y-119700002D01*
X135412500Y-118799998D01*
X135413704Y-118775494D01*
X135417304Y-118751226D01*
X135423265Y-118727427D01*
X135431530Y-118704328D01*
X135442019Y-118682150D01*
X135454632Y-118661107D01*
X135469247Y-118641401D01*
X135485723Y-118623223D01*
X135503901Y-118606747D01*
X135523607Y-118592132D01*
X135544650Y-118579519D01*
X135566828Y-118569030D01*
X135589927Y-118560765D01*
X135613726Y-118554804D01*
X135637994Y-118551204D01*
X135662498Y-118550000D01*
X136187502Y-118550000D01*
X136212006Y-118551204D01*
G37*
%TD*%
%TO.C,R14*%
G36*
X136212006Y-120801204D02*
G01*
X136236274Y-120804804D01*
X136260073Y-120810765D01*
X136283172Y-120819030D01*
X136305350Y-120829519D01*
X136326393Y-120842132D01*
X136346099Y-120856747D01*
X136364277Y-120873223D01*
X136380753Y-120891401D01*
X136395368Y-120911107D01*
X136407981Y-120932150D01*
X136418470Y-120954328D01*
X136426735Y-120977427D01*
X136432696Y-121001226D01*
X136436296Y-121025494D01*
X136437500Y-121049998D01*
X136437500Y-121950002D01*
X136436296Y-121974506D01*
X136432696Y-121998774D01*
X136426735Y-122022573D01*
X136418470Y-122045672D01*
X136407981Y-122067850D01*
X136395368Y-122088893D01*
X136380753Y-122108599D01*
X136364277Y-122126777D01*
X136346099Y-122143253D01*
X136326393Y-122157868D01*
X136305350Y-122170481D01*
X136283172Y-122180970D01*
X136260073Y-122189235D01*
X136236274Y-122195196D01*
X136212006Y-122198796D01*
X136187502Y-122200000D01*
X135662498Y-122200000D01*
X135637994Y-122198796D01*
X135613726Y-122195196D01*
X135589927Y-122189235D01*
X135566828Y-122180970D01*
X135544650Y-122170481D01*
X135523607Y-122157868D01*
X135503901Y-122143253D01*
X135485723Y-122126777D01*
X135469247Y-122108599D01*
X135454632Y-122088893D01*
X135442019Y-122067850D01*
X135431530Y-122045672D01*
X135423265Y-122022573D01*
X135417304Y-121998774D01*
X135413704Y-121974506D01*
X135412500Y-121950002D01*
X135412500Y-121049998D01*
X135413704Y-121025494D01*
X135417304Y-121001226D01*
X135423265Y-120977427D01*
X135431530Y-120954328D01*
X135442019Y-120932150D01*
X135454632Y-120911107D01*
X135469247Y-120891401D01*
X135485723Y-120873223D01*
X135503901Y-120856747D01*
X135523607Y-120842132D01*
X135544650Y-120829519D01*
X135566828Y-120819030D01*
X135589927Y-120810765D01*
X135613726Y-120804804D01*
X135637994Y-120801204D01*
X135662498Y-120800000D01*
X136187502Y-120800000D01*
X136212006Y-120801204D01*
G37*
G36*
X138037006Y-120801204D02*
G01*
X138061274Y-120804804D01*
X138085073Y-120810765D01*
X138108172Y-120819030D01*
X138130350Y-120829519D01*
X138151393Y-120842132D01*
X138171099Y-120856747D01*
X138189277Y-120873223D01*
X138205753Y-120891401D01*
X138220368Y-120911107D01*
X138232981Y-120932150D01*
X138243470Y-120954328D01*
X138251735Y-120977427D01*
X138257696Y-121001226D01*
X138261296Y-121025494D01*
X138262500Y-121049998D01*
X138262500Y-121950002D01*
X138261296Y-121974506D01*
X138257696Y-121998774D01*
X138251735Y-122022573D01*
X138243470Y-122045672D01*
X138232981Y-122067850D01*
X138220368Y-122088893D01*
X138205753Y-122108599D01*
X138189277Y-122126777D01*
X138171099Y-122143253D01*
X138151393Y-122157868D01*
X138130350Y-122170481D01*
X138108172Y-122180970D01*
X138085073Y-122189235D01*
X138061274Y-122195196D01*
X138037006Y-122198796D01*
X138012502Y-122200000D01*
X137487498Y-122200000D01*
X137462994Y-122198796D01*
X137438726Y-122195196D01*
X137414927Y-122189235D01*
X137391828Y-122180970D01*
X137369650Y-122170481D01*
X137348607Y-122157868D01*
X137328901Y-122143253D01*
X137310723Y-122126777D01*
X137294247Y-122108599D01*
X137279632Y-122088893D01*
X137267019Y-122067850D01*
X137256530Y-122045672D01*
X137248265Y-122022573D01*
X137242304Y-121998774D01*
X137238704Y-121974506D01*
X137237500Y-121950002D01*
X137237500Y-121049998D01*
X137238704Y-121025494D01*
X137242304Y-121001226D01*
X137248265Y-120977427D01*
X137256530Y-120954328D01*
X137267019Y-120932150D01*
X137279632Y-120911107D01*
X137294247Y-120891401D01*
X137310723Y-120873223D01*
X137328901Y-120856747D01*
X137348607Y-120842132D01*
X137369650Y-120829519D01*
X137391828Y-120819030D01*
X137414927Y-120810765D01*
X137438726Y-120804804D01*
X137462994Y-120801204D01*
X137487498Y-120800000D01*
X138012502Y-120800000D01*
X138037006Y-120801204D01*
G37*
%TD*%
%TO.C,R15*%
G36*
X148579506Y-99472204D02*
G01*
X148603774Y-99475804D01*
X148627573Y-99481765D01*
X148650672Y-99490030D01*
X148672850Y-99500519D01*
X148693893Y-99513132D01*
X148713599Y-99527747D01*
X148731777Y-99544223D01*
X148748253Y-99562401D01*
X148762868Y-99582107D01*
X148775481Y-99603150D01*
X148785970Y-99625328D01*
X148794235Y-99648427D01*
X148800196Y-99672226D01*
X148803796Y-99696494D01*
X148805000Y-99720998D01*
X148805000Y-100621002D01*
X148803796Y-100645506D01*
X148800196Y-100669774D01*
X148794235Y-100693573D01*
X148785970Y-100716672D01*
X148775481Y-100738850D01*
X148762868Y-100759893D01*
X148748253Y-100779599D01*
X148731777Y-100797777D01*
X148713599Y-100814253D01*
X148693893Y-100828868D01*
X148672850Y-100841481D01*
X148650672Y-100851970D01*
X148627573Y-100860235D01*
X148603774Y-100866196D01*
X148579506Y-100869796D01*
X148555002Y-100871000D01*
X148029998Y-100871000D01*
X148005494Y-100869796D01*
X147981226Y-100866196D01*
X147957427Y-100860235D01*
X147934328Y-100851970D01*
X147912150Y-100841481D01*
X147891107Y-100828868D01*
X147871401Y-100814253D01*
X147853223Y-100797777D01*
X147836747Y-100779599D01*
X147822132Y-100759893D01*
X147809519Y-100738850D01*
X147799030Y-100716672D01*
X147790765Y-100693573D01*
X147784804Y-100669774D01*
X147781204Y-100645506D01*
X147780000Y-100621002D01*
X147780000Y-99720998D01*
X147781204Y-99696494D01*
X147784804Y-99672226D01*
X147790765Y-99648427D01*
X147799030Y-99625328D01*
X147809519Y-99603150D01*
X147822132Y-99582107D01*
X147836747Y-99562401D01*
X147853223Y-99544223D01*
X147871401Y-99527747D01*
X147891107Y-99513132D01*
X147912150Y-99500519D01*
X147934328Y-99490030D01*
X147957427Y-99481765D01*
X147981226Y-99475804D01*
X148005494Y-99472204D01*
X148029998Y-99471000D01*
X148555002Y-99471000D01*
X148579506Y-99472204D01*
G37*
G36*
X146754506Y-99472204D02*
G01*
X146778774Y-99475804D01*
X146802573Y-99481765D01*
X146825672Y-99490030D01*
X146847850Y-99500519D01*
X146868893Y-99513132D01*
X146888599Y-99527747D01*
X146906777Y-99544223D01*
X146923253Y-99562401D01*
X146937868Y-99582107D01*
X146950481Y-99603150D01*
X146960970Y-99625328D01*
X146969235Y-99648427D01*
X146975196Y-99672226D01*
X146978796Y-99696494D01*
X146980000Y-99720998D01*
X146980000Y-100621002D01*
X146978796Y-100645506D01*
X146975196Y-100669774D01*
X146969235Y-100693573D01*
X146960970Y-100716672D01*
X146950481Y-100738850D01*
X146937868Y-100759893D01*
X146923253Y-100779599D01*
X146906777Y-100797777D01*
X146888599Y-100814253D01*
X146868893Y-100828868D01*
X146847850Y-100841481D01*
X146825672Y-100851970D01*
X146802573Y-100860235D01*
X146778774Y-100866196D01*
X146754506Y-100869796D01*
X146730002Y-100871000D01*
X146204998Y-100871000D01*
X146180494Y-100869796D01*
X146156226Y-100866196D01*
X146132427Y-100860235D01*
X146109328Y-100851970D01*
X146087150Y-100841481D01*
X146066107Y-100828868D01*
X146046401Y-100814253D01*
X146028223Y-100797777D01*
X146011747Y-100779599D01*
X145997132Y-100759893D01*
X145984519Y-100738850D01*
X145974030Y-100716672D01*
X145965765Y-100693573D01*
X145959804Y-100669774D01*
X145956204Y-100645506D01*
X145955000Y-100621002D01*
X145955000Y-99720998D01*
X145956204Y-99696494D01*
X145959804Y-99672226D01*
X145965765Y-99648427D01*
X145974030Y-99625328D01*
X145984519Y-99603150D01*
X145997132Y-99582107D01*
X146011747Y-99562401D01*
X146028223Y-99544223D01*
X146046401Y-99527747D01*
X146066107Y-99513132D01*
X146087150Y-99500519D01*
X146109328Y-99490030D01*
X146132427Y-99481765D01*
X146156226Y-99475804D01*
X146180494Y-99472204D01*
X146204998Y-99471000D01*
X146730002Y-99471000D01*
X146754506Y-99472204D01*
G37*
%TD*%
%TO.C,R16*%
G36*
X163246686Y-88292625D02*
G01*
X163270954Y-88296225D01*
X163294753Y-88302186D01*
X163317852Y-88310451D01*
X163340030Y-88320940D01*
X163361073Y-88333553D01*
X163380779Y-88348168D01*
X163398957Y-88364644D01*
X164035356Y-89001043D01*
X164051832Y-89019221D01*
X164066447Y-89038927D01*
X164079060Y-89059970D01*
X164089549Y-89082148D01*
X164097814Y-89105247D01*
X164103775Y-89129046D01*
X164107375Y-89153314D01*
X164108579Y-89177818D01*
X164107375Y-89202322D01*
X164103775Y-89226590D01*
X164097814Y-89250389D01*
X164089549Y-89273488D01*
X164079060Y-89295666D01*
X164066447Y-89316709D01*
X164051832Y-89336415D01*
X164035356Y-89354593D01*
X163664123Y-89725826D01*
X163645945Y-89742302D01*
X163626239Y-89756917D01*
X163605196Y-89769530D01*
X163583018Y-89780019D01*
X163559919Y-89788284D01*
X163536120Y-89794245D01*
X163511852Y-89797845D01*
X163487348Y-89799049D01*
X163462844Y-89797845D01*
X163438576Y-89794245D01*
X163414777Y-89788284D01*
X163391678Y-89780019D01*
X163369500Y-89769530D01*
X163348457Y-89756917D01*
X163328751Y-89742302D01*
X163310573Y-89725826D01*
X162674174Y-89089427D01*
X162657698Y-89071249D01*
X162643083Y-89051543D01*
X162630470Y-89030500D01*
X162619981Y-89008322D01*
X162611716Y-88985223D01*
X162605755Y-88961424D01*
X162602155Y-88937156D01*
X162600951Y-88912652D01*
X162602155Y-88888148D01*
X162605755Y-88863880D01*
X162611716Y-88840081D01*
X162619981Y-88816982D01*
X162630470Y-88794804D01*
X162643083Y-88773761D01*
X162657698Y-88754055D01*
X162674174Y-88735877D01*
X163045407Y-88364644D01*
X163063585Y-88348168D01*
X163083291Y-88333553D01*
X163104334Y-88320940D01*
X163126512Y-88310451D01*
X163149611Y-88302186D01*
X163173410Y-88296225D01*
X163197678Y-88292625D01*
X163222182Y-88291421D01*
X163246686Y-88292625D01*
G37*
G36*
X164537156Y-87002155D02*
G01*
X164561424Y-87005755D01*
X164585223Y-87011716D01*
X164608322Y-87019981D01*
X164630500Y-87030470D01*
X164651543Y-87043083D01*
X164671249Y-87057698D01*
X164689427Y-87074174D01*
X165325826Y-87710573D01*
X165342302Y-87728751D01*
X165356917Y-87748457D01*
X165369530Y-87769500D01*
X165380019Y-87791678D01*
X165388284Y-87814777D01*
X165394245Y-87838576D01*
X165397845Y-87862844D01*
X165399049Y-87887348D01*
X165397845Y-87911852D01*
X165394245Y-87936120D01*
X165388284Y-87959919D01*
X165380019Y-87983018D01*
X165369530Y-88005196D01*
X165356917Y-88026239D01*
X165342302Y-88045945D01*
X165325826Y-88064123D01*
X164954593Y-88435356D01*
X164936415Y-88451832D01*
X164916709Y-88466447D01*
X164895666Y-88479060D01*
X164873488Y-88489549D01*
X164850389Y-88497814D01*
X164826590Y-88503775D01*
X164802322Y-88507375D01*
X164777818Y-88508579D01*
X164753314Y-88507375D01*
X164729046Y-88503775D01*
X164705247Y-88497814D01*
X164682148Y-88489549D01*
X164659970Y-88479060D01*
X164638927Y-88466447D01*
X164619221Y-88451832D01*
X164601043Y-88435356D01*
X163964644Y-87798957D01*
X163948168Y-87780779D01*
X163933553Y-87761073D01*
X163920940Y-87740030D01*
X163910451Y-87717852D01*
X163902186Y-87694753D01*
X163896225Y-87670954D01*
X163892625Y-87646686D01*
X163891421Y-87622182D01*
X163892625Y-87597678D01*
X163896225Y-87573410D01*
X163902186Y-87549611D01*
X163910451Y-87526512D01*
X163920940Y-87504334D01*
X163933553Y-87483291D01*
X163948168Y-87463585D01*
X163964644Y-87445407D01*
X164335877Y-87074174D01*
X164354055Y-87057698D01*
X164373761Y-87043083D01*
X164394804Y-87030470D01*
X164416982Y-87019981D01*
X164440081Y-87011716D01*
X164463880Y-87005755D01*
X164488148Y-87002155D01*
X164512652Y-87000951D01*
X164537156Y-87002155D01*
G37*
%TD*%
%TO.C,R17*%
G36*
X166091921Y-88447390D02*
G01*
X166116189Y-88450990D01*
X166139988Y-88456951D01*
X166163087Y-88465216D01*
X166185265Y-88475705D01*
X166206308Y-88488318D01*
X166226014Y-88502933D01*
X166244192Y-88519409D01*
X166880591Y-89155808D01*
X166897067Y-89173986D01*
X166911682Y-89193692D01*
X166924295Y-89214735D01*
X166934784Y-89236913D01*
X166943049Y-89260012D01*
X166949010Y-89283811D01*
X166952610Y-89308079D01*
X166953814Y-89332583D01*
X166952610Y-89357087D01*
X166949010Y-89381355D01*
X166943049Y-89405154D01*
X166934784Y-89428253D01*
X166924295Y-89450431D01*
X166911682Y-89471474D01*
X166897067Y-89491180D01*
X166880591Y-89509358D01*
X166509358Y-89880591D01*
X166491180Y-89897067D01*
X166471474Y-89911682D01*
X166450431Y-89924295D01*
X166428253Y-89934784D01*
X166405154Y-89943049D01*
X166381355Y-89949010D01*
X166357087Y-89952610D01*
X166332583Y-89953814D01*
X166308079Y-89952610D01*
X166283811Y-89949010D01*
X166260012Y-89943049D01*
X166236913Y-89934784D01*
X166214735Y-89924295D01*
X166193692Y-89911682D01*
X166173986Y-89897067D01*
X166155808Y-89880591D01*
X165519409Y-89244192D01*
X165502933Y-89226014D01*
X165488318Y-89206308D01*
X165475705Y-89185265D01*
X165465216Y-89163087D01*
X165456951Y-89139988D01*
X165450990Y-89116189D01*
X165447390Y-89091921D01*
X165446186Y-89067417D01*
X165447390Y-89042913D01*
X165450990Y-89018645D01*
X165456951Y-88994846D01*
X165465216Y-88971747D01*
X165475705Y-88949569D01*
X165488318Y-88928526D01*
X165502933Y-88908820D01*
X165519409Y-88890642D01*
X165890642Y-88519409D01*
X165908820Y-88502933D01*
X165928526Y-88488318D01*
X165949569Y-88475705D01*
X165971747Y-88465216D01*
X165994846Y-88456951D01*
X166018645Y-88450990D01*
X166042913Y-88447390D01*
X166067417Y-88446186D01*
X166091921Y-88447390D01*
G37*
G36*
X164801451Y-89737860D02*
G01*
X164825719Y-89741460D01*
X164849518Y-89747421D01*
X164872617Y-89755686D01*
X164894795Y-89766175D01*
X164915838Y-89778788D01*
X164935544Y-89793403D01*
X164953722Y-89809879D01*
X165590121Y-90446278D01*
X165606597Y-90464456D01*
X165621212Y-90484162D01*
X165633825Y-90505205D01*
X165644314Y-90527383D01*
X165652579Y-90550482D01*
X165658540Y-90574281D01*
X165662140Y-90598549D01*
X165663344Y-90623053D01*
X165662140Y-90647557D01*
X165658540Y-90671825D01*
X165652579Y-90695624D01*
X165644314Y-90718723D01*
X165633825Y-90740901D01*
X165621212Y-90761944D01*
X165606597Y-90781650D01*
X165590121Y-90799828D01*
X165218888Y-91171061D01*
X165200710Y-91187537D01*
X165181004Y-91202152D01*
X165159961Y-91214765D01*
X165137783Y-91225254D01*
X165114684Y-91233519D01*
X165090885Y-91239480D01*
X165066617Y-91243080D01*
X165042113Y-91244284D01*
X165017609Y-91243080D01*
X164993341Y-91239480D01*
X164969542Y-91233519D01*
X164946443Y-91225254D01*
X164924265Y-91214765D01*
X164903222Y-91202152D01*
X164883516Y-91187537D01*
X164865338Y-91171061D01*
X164228939Y-90534662D01*
X164212463Y-90516484D01*
X164197848Y-90496778D01*
X164185235Y-90475735D01*
X164174746Y-90453557D01*
X164166481Y-90430458D01*
X164160520Y-90406659D01*
X164156920Y-90382391D01*
X164155716Y-90357887D01*
X164156920Y-90333383D01*
X164160520Y-90309115D01*
X164166481Y-90285316D01*
X164174746Y-90262217D01*
X164185235Y-90240039D01*
X164197848Y-90218996D01*
X164212463Y-90199290D01*
X164228939Y-90181112D01*
X164600172Y-89809879D01*
X164618350Y-89793403D01*
X164638056Y-89778788D01*
X164659099Y-89766175D01*
X164681277Y-89755686D01*
X164704376Y-89747421D01*
X164728175Y-89741460D01*
X164752443Y-89737860D01*
X164776947Y-89736656D01*
X164801451Y-89737860D01*
G37*
%TD*%
%TO.C,R19*%
G36*
X170779506Y-103841204D02*
G01*
X170803774Y-103844804D01*
X170827573Y-103850765D01*
X170850672Y-103859030D01*
X170872850Y-103869519D01*
X170893893Y-103882132D01*
X170913599Y-103896747D01*
X170931777Y-103913223D01*
X170948253Y-103931401D01*
X170962868Y-103951107D01*
X170975481Y-103972150D01*
X170985970Y-103994328D01*
X170994235Y-104017427D01*
X171000196Y-104041226D01*
X171003796Y-104065494D01*
X171005000Y-104089998D01*
X171005000Y-104990002D01*
X171003796Y-105014506D01*
X171000196Y-105038774D01*
X170994235Y-105062573D01*
X170985970Y-105085672D01*
X170975481Y-105107850D01*
X170962868Y-105128893D01*
X170948253Y-105148599D01*
X170931777Y-105166777D01*
X170913599Y-105183253D01*
X170893893Y-105197868D01*
X170872850Y-105210481D01*
X170850672Y-105220970D01*
X170827573Y-105229235D01*
X170803774Y-105235196D01*
X170779506Y-105238796D01*
X170755002Y-105240000D01*
X170229998Y-105240000D01*
X170205494Y-105238796D01*
X170181226Y-105235196D01*
X170157427Y-105229235D01*
X170134328Y-105220970D01*
X170112150Y-105210481D01*
X170091107Y-105197868D01*
X170071401Y-105183253D01*
X170053223Y-105166777D01*
X170036747Y-105148599D01*
X170022132Y-105128893D01*
X170009519Y-105107850D01*
X169999030Y-105085672D01*
X169990765Y-105062573D01*
X169984804Y-105038774D01*
X169981204Y-105014506D01*
X169980000Y-104990002D01*
X169980000Y-104089998D01*
X169981204Y-104065494D01*
X169984804Y-104041226D01*
X169990765Y-104017427D01*
X169999030Y-103994328D01*
X170009519Y-103972150D01*
X170022132Y-103951107D01*
X170036747Y-103931401D01*
X170053223Y-103913223D01*
X170071401Y-103896747D01*
X170091107Y-103882132D01*
X170112150Y-103869519D01*
X170134328Y-103859030D01*
X170157427Y-103850765D01*
X170181226Y-103844804D01*
X170205494Y-103841204D01*
X170229998Y-103840000D01*
X170755002Y-103840000D01*
X170779506Y-103841204D01*
G37*
G36*
X168954506Y-103841204D02*
G01*
X168978774Y-103844804D01*
X169002573Y-103850765D01*
X169025672Y-103859030D01*
X169047850Y-103869519D01*
X169068893Y-103882132D01*
X169088599Y-103896747D01*
X169106777Y-103913223D01*
X169123253Y-103931401D01*
X169137868Y-103951107D01*
X169150481Y-103972150D01*
X169160970Y-103994328D01*
X169169235Y-104017427D01*
X169175196Y-104041226D01*
X169178796Y-104065494D01*
X169180000Y-104089998D01*
X169180000Y-104990002D01*
X169178796Y-105014506D01*
X169175196Y-105038774D01*
X169169235Y-105062573D01*
X169160970Y-105085672D01*
X169150481Y-105107850D01*
X169137868Y-105128893D01*
X169123253Y-105148599D01*
X169106777Y-105166777D01*
X169088599Y-105183253D01*
X169068893Y-105197868D01*
X169047850Y-105210481D01*
X169025672Y-105220970D01*
X169002573Y-105229235D01*
X168978774Y-105235196D01*
X168954506Y-105238796D01*
X168930002Y-105240000D01*
X168404998Y-105240000D01*
X168380494Y-105238796D01*
X168356226Y-105235196D01*
X168332427Y-105229235D01*
X168309328Y-105220970D01*
X168287150Y-105210481D01*
X168266107Y-105197868D01*
X168246401Y-105183253D01*
X168228223Y-105166777D01*
X168211747Y-105148599D01*
X168197132Y-105128893D01*
X168184519Y-105107850D01*
X168174030Y-105085672D01*
X168165765Y-105062573D01*
X168159804Y-105038774D01*
X168156204Y-105014506D01*
X168155000Y-104990002D01*
X168155000Y-104089998D01*
X168156204Y-104065494D01*
X168159804Y-104041226D01*
X168165765Y-104017427D01*
X168174030Y-103994328D01*
X168184519Y-103972150D01*
X168197132Y-103951107D01*
X168211747Y-103931401D01*
X168228223Y-103913223D01*
X168246401Y-103896747D01*
X168266107Y-103882132D01*
X168287150Y-103869519D01*
X168309328Y-103859030D01*
X168332427Y-103850765D01*
X168356226Y-103844804D01*
X168380494Y-103841204D01*
X168404998Y-103840000D01*
X168930002Y-103840000D01*
X168954506Y-103841204D01*
G37*
%TD*%
%TO.C,R20*%
G36*
X168954506Y-106091204D02*
G01*
X168978774Y-106094804D01*
X169002573Y-106100765D01*
X169025672Y-106109030D01*
X169047850Y-106119519D01*
X169068893Y-106132132D01*
X169088599Y-106146747D01*
X169106777Y-106163223D01*
X169123253Y-106181401D01*
X169137868Y-106201107D01*
X169150481Y-106222150D01*
X169160970Y-106244328D01*
X169169235Y-106267427D01*
X169175196Y-106291226D01*
X169178796Y-106315494D01*
X169180000Y-106339998D01*
X169180000Y-107240002D01*
X169178796Y-107264506D01*
X169175196Y-107288774D01*
X169169235Y-107312573D01*
X169160970Y-107335672D01*
X169150481Y-107357850D01*
X169137868Y-107378893D01*
X169123253Y-107398599D01*
X169106777Y-107416777D01*
X169088599Y-107433253D01*
X169068893Y-107447868D01*
X169047850Y-107460481D01*
X169025672Y-107470970D01*
X169002573Y-107479235D01*
X168978774Y-107485196D01*
X168954506Y-107488796D01*
X168930002Y-107490000D01*
X168404998Y-107490000D01*
X168380494Y-107488796D01*
X168356226Y-107485196D01*
X168332427Y-107479235D01*
X168309328Y-107470970D01*
X168287150Y-107460481D01*
X168266107Y-107447868D01*
X168246401Y-107433253D01*
X168228223Y-107416777D01*
X168211747Y-107398599D01*
X168197132Y-107378893D01*
X168184519Y-107357850D01*
X168174030Y-107335672D01*
X168165765Y-107312573D01*
X168159804Y-107288774D01*
X168156204Y-107264506D01*
X168155000Y-107240002D01*
X168155000Y-106339998D01*
X168156204Y-106315494D01*
X168159804Y-106291226D01*
X168165765Y-106267427D01*
X168174030Y-106244328D01*
X168184519Y-106222150D01*
X168197132Y-106201107D01*
X168211747Y-106181401D01*
X168228223Y-106163223D01*
X168246401Y-106146747D01*
X168266107Y-106132132D01*
X168287150Y-106119519D01*
X168309328Y-106109030D01*
X168332427Y-106100765D01*
X168356226Y-106094804D01*
X168380494Y-106091204D01*
X168404998Y-106090000D01*
X168930002Y-106090000D01*
X168954506Y-106091204D01*
G37*
G36*
X170779506Y-106091204D02*
G01*
X170803774Y-106094804D01*
X170827573Y-106100765D01*
X170850672Y-106109030D01*
X170872850Y-106119519D01*
X170893893Y-106132132D01*
X170913599Y-106146747D01*
X170931777Y-106163223D01*
X170948253Y-106181401D01*
X170962868Y-106201107D01*
X170975481Y-106222150D01*
X170985970Y-106244328D01*
X170994235Y-106267427D01*
X171000196Y-106291226D01*
X171003796Y-106315494D01*
X171005000Y-106339998D01*
X171005000Y-107240002D01*
X171003796Y-107264506D01*
X171000196Y-107288774D01*
X170994235Y-107312573D01*
X170985970Y-107335672D01*
X170975481Y-107357850D01*
X170962868Y-107378893D01*
X170948253Y-107398599D01*
X170931777Y-107416777D01*
X170913599Y-107433253D01*
X170893893Y-107447868D01*
X170872850Y-107460481D01*
X170850672Y-107470970D01*
X170827573Y-107479235D01*
X170803774Y-107485196D01*
X170779506Y-107488796D01*
X170755002Y-107490000D01*
X170229998Y-107490000D01*
X170205494Y-107488796D01*
X170181226Y-107485196D01*
X170157427Y-107479235D01*
X170134328Y-107470970D01*
X170112150Y-107460481D01*
X170091107Y-107447868D01*
X170071401Y-107433253D01*
X170053223Y-107416777D01*
X170036747Y-107398599D01*
X170022132Y-107378893D01*
X170009519Y-107357850D01*
X169999030Y-107335672D01*
X169990765Y-107312573D01*
X169984804Y-107288774D01*
X169981204Y-107264506D01*
X169980000Y-107240002D01*
X169980000Y-106339998D01*
X169981204Y-106315494D01*
X169984804Y-106291226D01*
X169990765Y-106267427D01*
X169999030Y-106244328D01*
X170009519Y-106222150D01*
X170022132Y-106201107D01*
X170036747Y-106181401D01*
X170053223Y-106163223D01*
X170071401Y-106146747D01*
X170091107Y-106132132D01*
X170112150Y-106119519D01*
X170134328Y-106109030D01*
X170157427Y-106100765D01*
X170181226Y-106094804D01*
X170205494Y-106091204D01*
X170229998Y-106090000D01*
X170755002Y-106090000D01*
X170779506Y-106091204D01*
G37*
%TD*%
%TO.C,R21*%
G36*
X170779506Y-108341204D02*
G01*
X170803774Y-108344804D01*
X170827573Y-108350765D01*
X170850672Y-108359030D01*
X170872850Y-108369519D01*
X170893893Y-108382132D01*
X170913599Y-108396747D01*
X170931777Y-108413223D01*
X170948253Y-108431401D01*
X170962868Y-108451107D01*
X170975481Y-108472150D01*
X170985970Y-108494328D01*
X170994235Y-108517427D01*
X171000196Y-108541226D01*
X171003796Y-108565494D01*
X171005000Y-108589998D01*
X171005000Y-109490002D01*
X171003796Y-109514506D01*
X171000196Y-109538774D01*
X170994235Y-109562573D01*
X170985970Y-109585672D01*
X170975481Y-109607850D01*
X170962868Y-109628893D01*
X170948253Y-109648599D01*
X170931777Y-109666777D01*
X170913599Y-109683253D01*
X170893893Y-109697868D01*
X170872850Y-109710481D01*
X170850672Y-109720970D01*
X170827573Y-109729235D01*
X170803774Y-109735196D01*
X170779506Y-109738796D01*
X170755002Y-109740000D01*
X170229998Y-109740000D01*
X170205494Y-109738796D01*
X170181226Y-109735196D01*
X170157427Y-109729235D01*
X170134328Y-109720970D01*
X170112150Y-109710481D01*
X170091107Y-109697868D01*
X170071401Y-109683253D01*
X170053223Y-109666777D01*
X170036747Y-109648599D01*
X170022132Y-109628893D01*
X170009519Y-109607850D01*
X169999030Y-109585672D01*
X169990765Y-109562573D01*
X169984804Y-109538774D01*
X169981204Y-109514506D01*
X169980000Y-109490002D01*
X169980000Y-108589998D01*
X169981204Y-108565494D01*
X169984804Y-108541226D01*
X169990765Y-108517427D01*
X169999030Y-108494328D01*
X170009519Y-108472150D01*
X170022132Y-108451107D01*
X170036747Y-108431401D01*
X170053223Y-108413223D01*
X170071401Y-108396747D01*
X170091107Y-108382132D01*
X170112150Y-108369519D01*
X170134328Y-108359030D01*
X170157427Y-108350765D01*
X170181226Y-108344804D01*
X170205494Y-108341204D01*
X170229998Y-108340000D01*
X170755002Y-108340000D01*
X170779506Y-108341204D01*
G37*
G36*
X168954506Y-108341204D02*
G01*
X168978774Y-108344804D01*
X169002573Y-108350765D01*
X169025672Y-108359030D01*
X169047850Y-108369519D01*
X169068893Y-108382132D01*
X169088599Y-108396747D01*
X169106777Y-108413223D01*
X169123253Y-108431401D01*
X169137868Y-108451107D01*
X169150481Y-108472150D01*
X169160970Y-108494328D01*
X169169235Y-108517427D01*
X169175196Y-108541226D01*
X169178796Y-108565494D01*
X169180000Y-108589998D01*
X169180000Y-109490002D01*
X169178796Y-109514506D01*
X169175196Y-109538774D01*
X169169235Y-109562573D01*
X169160970Y-109585672D01*
X169150481Y-109607850D01*
X169137868Y-109628893D01*
X169123253Y-109648599D01*
X169106777Y-109666777D01*
X169088599Y-109683253D01*
X169068893Y-109697868D01*
X169047850Y-109710481D01*
X169025672Y-109720970D01*
X169002573Y-109729235D01*
X168978774Y-109735196D01*
X168954506Y-109738796D01*
X168930002Y-109740000D01*
X168404998Y-109740000D01*
X168380494Y-109738796D01*
X168356226Y-109735196D01*
X168332427Y-109729235D01*
X168309328Y-109720970D01*
X168287150Y-109710481D01*
X168266107Y-109697868D01*
X168246401Y-109683253D01*
X168228223Y-109666777D01*
X168211747Y-109648599D01*
X168197132Y-109628893D01*
X168184519Y-109607850D01*
X168174030Y-109585672D01*
X168165765Y-109562573D01*
X168159804Y-109538774D01*
X168156204Y-109514506D01*
X168155000Y-109490002D01*
X168155000Y-108589998D01*
X168156204Y-108565494D01*
X168159804Y-108541226D01*
X168165765Y-108517427D01*
X168174030Y-108494328D01*
X168184519Y-108472150D01*
X168197132Y-108451107D01*
X168211747Y-108431401D01*
X168228223Y-108413223D01*
X168246401Y-108396747D01*
X168266107Y-108382132D01*
X168287150Y-108369519D01*
X168309328Y-108359030D01*
X168332427Y-108350765D01*
X168356226Y-108344804D01*
X168380494Y-108341204D01*
X168404998Y-108340000D01*
X168930002Y-108340000D01*
X168954506Y-108341204D01*
G37*
%TD*%
%TO.C,R22*%
G36*
X171159852Y-118370155D02*
G01*
X171184120Y-118373755D01*
X171207919Y-118379716D01*
X171231018Y-118387981D01*
X171253196Y-118398470D01*
X171274239Y-118411083D01*
X171293945Y-118425698D01*
X171312123Y-118442174D01*
X171683356Y-118813407D01*
X171699832Y-118831585D01*
X171714447Y-118851291D01*
X171727060Y-118872334D01*
X171737549Y-118894512D01*
X171745814Y-118917611D01*
X171751775Y-118941410D01*
X171755375Y-118965678D01*
X171756579Y-118990182D01*
X171755375Y-119014686D01*
X171751775Y-119038954D01*
X171745814Y-119062753D01*
X171737549Y-119085852D01*
X171727060Y-119108030D01*
X171714447Y-119129073D01*
X171699832Y-119148779D01*
X171683356Y-119166957D01*
X171046957Y-119803356D01*
X171028779Y-119819832D01*
X171009073Y-119834447D01*
X170988030Y-119847060D01*
X170965852Y-119857549D01*
X170942753Y-119865814D01*
X170918954Y-119871775D01*
X170894686Y-119875375D01*
X170870182Y-119876579D01*
X170845678Y-119875375D01*
X170821410Y-119871775D01*
X170797611Y-119865814D01*
X170774512Y-119857549D01*
X170752334Y-119847060D01*
X170731291Y-119834447D01*
X170711585Y-119819832D01*
X170693407Y-119803356D01*
X170322174Y-119432123D01*
X170305698Y-119413945D01*
X170291083Y-119394239D01*
X170278470Y-119373196D01*
X170267981Y-119351018D01*
X170259716Y-119327919D01*
X170253755Y-119304120D01*
X170250155Y-119279852D01*
X170248951Y-119255348D01*
X170250155Y-119230844D01*
X170253755Y-119206576D01*
X170259716Y-119182777D01*
X170267981Y-119159678D01*
X170278470Y-119137500D01*
X170291083Y-119116457D01*
X170305698Y-119096751D01*
X170322174Y-119078573D01*
X170958573Y-118442174D01*
X170976751Y-118425698D01*
X170996457Y-118411083D01*
X171017500Y-118398470D01*
X171039678Y-118387981D01*
X171062777Y-118379716D01*
X171086576Y-118373755D01*
X171110844Y-118370155D01*
X171135348Y-118368951D01*
X171159852Y-118370155D01*
G37*
G36*
X172450322Y-119660625D02*
G01*
X172474590Y-119664225D01*
X172498389Y-119670186D01*
X172521488Y-119678451D01*
X172543666Y-119688940D01*
X172564709Y-119701553D01*
X172584415Y-119716168D01*
X172602593Y-119732644D01*
X172973826Y-120103877D01*
X172990302Y-120122055D01*
X173004917Y-120141761D01*
X173017530Y-120162804D01*
X173028019Y-120184982D01*
X173036284Y-120208081D01*
X173042245Y-120231880D01*
X173045845Y-120256148D01*
X173047049Y-120280652D01*
X173045845Y-120305156D01*
X173042245Y-120329424D01*
X173036284Y-120353223D01*
X173028019Y-120376322D01*
X173017530Y-120398500D01*
X173004917Y-120419543D01*
X172990302Y-120439249D01*
X172973826Y-120457427D01*
X172337427Y-121093826D01*
X172319249Y-121110302D01*
X172299543Y-121124917D01*
X172278500Y-121137530D01*
X172256322Y-121148019D01*
X172233223Y-121156284D01*
X172209424Y-121162245D01*
X172185156Y-121165845D01*
X172160652Y-121167049D01*
X172136148Y-121165845D01*
X172111880Y-121162245D01*
X172088081Y-121156284D01*
X172064982Y-121148019D01*
X172042804Y-121137530D01*
X172021761Y-121124917D01*
X172002055Y-121110302D01*
X171983877Y-121093826D01*
X171612644Y-120722593D01*
X171596168Y-120704415D01*
X171581553Y-120684709D01*
X171568940Y-120663666D01*
X171558451Y-120641488D01*
X171550186Y-120618389D01*
X171544225Y-120594590D01*
X171540625Y-120570322D01*
X171539421Y-120545818D01*
X171540625Y-120521314D01*
X171544225Y-120497046D01*
X171550186Y-120473247D01*
X171558451Y-120450148D01*
X171568940Y-120427970D01*
X171581553Y-120406927D01*
X171596168Y-120387221D01*
X171612644Y-120369043D01*
X172249043Y-119732644D01*
X172267221Y-119716168D01*
X172286927Y-119701553D01*
X172307970Y-119688940D01*
X172330148Y-119678451D01*
X172353247Y-119670186D01*
X172377046Y-119664225D01*
X172401314Y-119660625D01*
X172425818Y-119659421D01*
X172450322Y-119660625D01*
G37*
%TD*%
%TO.C,R23*%
G36*
X170850322Y-121260625D02*
G01*
X170874590Y-121264225D01*
X170898389Y-121270186D01*
X170921488Y-121278451D01*
X170943666Y-121288940D01*
X170964709Y-121301553D01*
X170984415Y-121316168D01*
X171002593Y-121332644D01*
X171373826Y-121703877D01*
X171390302Y-121722055D01*
X171404917Y-121741761D01*
X171417530Y-121762804D01*
X171428019Y-121784982D01*
X171436284Y-121808081D01*
X171442245Y-121831880D01*
X171445845Y-121856148D01*
X171447049Y-121880652D01*
X171445845Y-121905156D01*
X171442245Y-121929424D01*
X171436284Y-121953223D01*
X171428019Y-121976322D01*
X171417530Y-121998500D01*
X171404917Y-122019543D01*
X171390302Y-122039249D01*
X171373826Y-122057427D01*
X170737427Y-122693826D01*
X170719249Y-122710302D01*
X170699543Y-122724917D01*
X170678500Y-122737530D01*
X170656322Y-122748019D01*
X170633223Y-122756284D01*
X170609424Y-122762245D01*
X170585156Y-122765845D01*
X170560652Y-122767049D01*
X170536148Y-122765845D01*
X170511880Y-122762245D01*
X170488081Y-122756284D01*
X170464982Y-122748019D01*
X170442804Y-122737530D01*
X170421761Y-122724917D01*
X170402055Y-122710302D01*
X170383877Y-122693826D01*
X170012644Y-122322593D01*
X169996168Y-122304415D01*
X169981553Y-122284709D01*
X169968940Y-122263666D01*
X169958451Y-122241488D01*
X169950186Y-122218389D01*
X169944225Y-122194590D01*
X169940625Y-122170322D01*
X169939421Y-122145818D01*
X169940625Y-122121314D01*
X169944225Y-122097046D01*
X169950186Y-122073247D01*
X169958451Y-122050148D01*
X169968940Y-122027970D01*
X169981553Y-122006927D01*
X169996168Y-121987221D01*
X170012644Y-121969043D01*
X170649043Y-121332644D01*
X170667221Y-121316168D01*
X170686927Y-121301553D01*
X170707970Y-121288940D01*
X170730148Y-121278451D01*
X170753247Y-121270186D01*
X170777046Y-121264225D01*
X170801314Y-121260625D01*
X170825818Y-121259421D01*
X170850322Y-121260625D01*
G37*
G36*
X169559852Y-119970155D02*
G01*
X169584120Y-119973755D01*
X169607919Y-119979716D01*
X169631018Y-119987981D01*
X169653196Y-119998470D01*
X169674239Y-120011083D01*
X169693945Y-120025698D01*
X169712123Y-120042174D01*
X170083356Y-120413407D01*
X170099832Y-120431585D01*
X170114447Y-120451291D01*
X170127060Y-120472334D01*
X170137549Y-120494512D01*
X170145814Y-120517611D01*
X170151775Y-120541410D01*
X170155375Y-120565678D01*
X170156579Y-120590182D01*
X170155375Y-120614686D01*
X170151775Y-120638954D01*
X170145814Y-120662753D01*
X170137549Y-120685852D01*
X170127060Y-120708030D01*
X170114447Y-120729073D01*
X170099832Y-120748779D01*
X170083356Y-120766957D01*
X169446957Y-121403356D01*
X169428779Y-121419832D01*
X169409073Y-121434447D01*
X169388030Y-121447060D01*
X169365852Y-121457549D01*
X169342753Y-121465814D01*
X169318954Y-121471775D01*
X169294686Y-121475375D01*
X169270182Y-121476579D01*
X169245678Y-121475375D01*
X169221410Y-121471775D01*
X169197611Y-121465814D01*
X169174512Y-121457549D01*
X169152334Y-121447060D01*
X169131291Y-121434447D01*
X169111585Y-121419832D01*
X169093407Y-121403356D01*
X168722174Y-121032123D01*
X168705698Y-121013945D01*
X168691083Y-120994239D01*
X168678470Y-120973196D01*
X168667981Y-120951018D01*
X168659716Y-120927919D01*
X168653755Y-120904120D01*
X168650155Y-120879852D01*
X168648951Y-120855348D01*
X168650155Y-120830844D01*
X168653755Y-120806576D01*
X168659716Y-120782777D01*
X168667981Y-120759678D01*
X168678470Y-120737500D01*
X168691083Y-120716457D01*
X168705698Y-120696751D01*
X168722174Y-120678573D01*
X169358573Y-120042174D01*
X169376751Y-120025698D01*
X169396457Y-120011083D01*
X169417500Y-119998470D01*
X169439678Y-119987981D01*
X169462777Y-119979716D01*
X169486576Y-119973755D01*
X169510844Y-119970155D01*
X169535348Y-119968951D01*
X169559852Y-119970155D01*
G37*
%TD*%
%TO.C,R24*%
G36*
X167959852Y-121570155D02*
G01*
X167984120Y-121573755D01*
X168007919Y-121579716D01*
X168031018Y-121587981D01*
X168053196Y-121598470D01*
X168074239Y-121611083D01*
X168093945Y-121625698D01*
X168112123Y-121642174D01*
X168483356Y-122013407D01*
X168499832Y-122031585D01*
X168514447Y-122051291D01*
X168527060Y-122072334D01*
X168537549Y-122094512D01*
X168545814Y-122117611D01*
X168551775Y-122141410D01*
X168555375Y-122165678D01*
X168556579Y-122190182D01*
X168555375Y-122214686D01*
X168551775Y-122238954D01*
X168545814Y-122262753D01*
X168537549Y-122285852D01*
X168527060Y-122308030D01*
X168514447Y-122329073D01*
X168499832Y-122348779D01*
X168483356Y-122366957D01*
X167846957Y-123003356D01*
X167828779Y-123019832D01*
X167809073Y-123034447D01*
X167788030Y-123047060D01*
X167765852Y-123057549D01*
X167742753Y-123065814D01*
X167718954Y-123071775D01*
X167694686Y-123075375D01*
X167670182Y-123076579D01*
X167645678Y-123075375D01*
X167621410Y-123071775D01*
X167597611Y-123065814D01*
X167574512Y-123057549D01*
X167552334Y-123047060D01*
X167531291Y-123034447D01*
X167511585Y-123019832D01*
X167493407Y-123003356D01*
X167122174Y-122632123D01*
X167105698Y-122613945D01*
X167091083Y-122594239D01*
X167078470Y-122573196D01*
X167067981Y-122551018D01*
X167059716Y-122527919D01*
X167053755Y-122504120D01*
X167050155Y-122479852D01*
X167048951Y-122455348D01*
X167050155Y-122430844D01*
X167053755Y-122406576D01*
X167059716Y-122382777D01*
X167067981Y-122359678D01*
X167078470Y-122337500D01*
X167091083Y-122316457D01*
X167105698Y-122296751D01*
X167122174Y-122278573D01*
X167758573Y-121642174D01*
X167776751Y-121625698D01*
X167796457Y-121611083D01*
X167817500Y-121598470D01*
X167839678Y-121587981D01*
X167862777Y-121579716D01*
X167886576Y-121573755D01*
X167910844Y-121570155D01*
X167935348Y-121568951D01*
X167959852Y-121570155D01*
G37*
G36*
X169250322Y-122860625D02*
G01*
X169274590Y-122864225D01*
X169298389Y-122870186D01*
X169321488Y-122878451D01*
X169343666Y-122888940D01*
X169364709Y-122901553D01*
X169384415Y-122916168D01*
X169402593Y-122932644D01*
X169773826Y-123303877D01*
X169790302Y-123322055D01*
X169804917Y-123341761D01*
X169817530Y-123362804D01*
X169828019Y-123384982D01*
X169836284Y-123408081D01*
X169842245Y-123431880D01*
X169845845Y-123456148D01*
X169847049Y-123480652D01*
X169845845Y-123505156D01*
X169842245Y-123529424D01*
X169836284Y-123553223D01*
X169828019Y-123576322D01*
X169817530Y-123598500D01*
X169804917Y-123619543D01*
X169790302Y-123639249D01*
X169773826Y-123657427D01*
X169137427Y-124293826D01*
X169119249Y-124310302D01*
X169099543Y-124324917D01*
X169078500Y-124337530D01*
X169056322Y-124348019D01*
X169033223Y-124356284D01*
X169009424Y-124362245D01*
X168985156Y-124365845D01*
X168960652Y-124367049D01*
X168936148Y-124365845D01*
X168911880Y-124362245D01*
X168888081Y-124356284D01*
X168864982Y-124348019D01*
X168842804Y-124337530D01*
X168821761Y-124324917D01*
X168802055Y-124310302D01*
X168783877Y-124293826D01*
X168412644Y-123922593D01*
X168396168Y-123904415D01*
X168381553Y-123884709D01*
X168368940Y-123863666D01*
X168358451Y-123841488D01*
X168350186Y-123818389D01*
X168344225Y-123794590D01*
X168340625Y-123770322D01*
X168339421Y-123745818D01*
X168340625Y-123721314D01*
X168344225Y-123697046D01*
X168350186Y-123673247D01*
X168358451Y-123650148D01*
X168368940Y-123627970D01*
X168381553Y-123606927D01*
X168396168Y-123587221D01*
X168412644Y-123569043D01*
X169049043Y-122932644D01*
X169067221Y-122916168D01*
X169086927Y-122901553D01*
X169107970Y-122888940D01*
X169130148Y-122878451D01*
X169153247Y-122870186D01*
X169177046Y-122864225D01*
X169201314Y-122860625D01*
X169225818Y-122859421D01*
X169250322Y-122860625D01*
G37*
%TD*%
%TO.C,R25*%
G36*
X153474506Y-125738704D02*
G01*
X153498774Y-125742304D01*
X153522573Y-125748265D01*
X153545672Y-125756530D01*
X153567850Y-125767019D01*
X153588893Y-125779632D01*
X153608599Y-125794247D01*
X153626777Y-125810723D01*
X153643253Y-125828901D01*
X153657868Y-125848607D01*
X153670481Y-125869650D01*
X153680970Y-125891828D01*
X153689235Y-125914927D01*
X153695196Y-125938726D01*
X153698796Y-125962994D01*
X153700000Y-125987498D01*
X153700000Y-126512502D01*
X153698796Y-126537006D01*
X153695196Y-126561274D01*
X153689235Y-126585073D01*
X153680970Y-126608172D01*
X153670481Y-126630350D01*
X153657868Y-126651393D01*
X153643253Y-126671099D01*
X153626777Y-126689277D01*
X153608599Y-126705753D01*
X153588893Y-126720368D01*
X153567850Y-126732981D01*
X153545672Y-126743470D01*
X153522573Y-126751735D01*
X153498774Y-126757696D01*
X153474506Y-126761296D01*
X153450002Y-126762500D01*
X152549998Y-126762500D01*
X152525494Y-126761296D01*
X152501226Y-126757696D01*
X152477427Y-126751735D01*
X152454328Y-126743470D01*
X152432150Y-126732981D01*
X152411107Y-126720368D01*
X152391401Y-126705753D01*
X152373223Y-126689277D01*
X152356747Y-126671099D01*
X152342132Y-126651393D01*
X152329519Y-126630350D01*
X152319030Y-126608172D01*
X152310765Y-126585073D01*
X152304804Y-126561274D01*
X152301204Y-126537006D01*
X152300000Y-126512502D01*
X152300000Y-125987498D01*
X152301204Y-125962994D01*
X152304804Y-125938726D01*
X152310765Y-125914927D01*
X152319030Y-125891828D01*
X152329519Y-125869650D01*
X152342132Y-125848607D01*
X152356747Y-125828901D01*
X152373223Y-125810723D01*
X152391401Y-125794247D01*
X152411107Y-125779632D01*
X152432150Y-125767019D01*
X152454328Y-125756530D01*
X152477427Y-125748265D01*
X152501226Y-125742304D01*
X152525494Y-125738704D01*
X152549998Y-125737500D01*
X153450002Y-125737500D01*
X153474506Y-125738704D01*
G37*
G36*
X153474506Y-123913704D02*
G01*
X153498774Y-123917304D01*
X153522573Y-123923265D01*
X153545672Y-123931530D01*
X153567850Y-123942019D01*
X153588893Y-123954632D01*
X153608599Y-123969247D01*
X153626777Y-123985723D01*
X153643253Y-124003901D01*
X153657868Y-124023607D01*
X153670481Y-124044650D01*
X153680970Y-124066828D01*
X153689235Y-124089927D01*
X153695196Y-124113726D01*
X153698796Y-124137994D01*
X153700000Y-124162498D01*
X153700000Y-124687502D01*
X153698796Y-124712006D01*
X153695196Y-124736274D01*
X153689235Y-124760073D01*
X153680970Y-124783172D01*
X153670481Y-124805350D01*
X153657868Y-124826393D01*
X153643253Y-124846099D01*
X153626777Y-124864277D01*
X153608599Y-124880753D01*
X153588893Y-124895368D01*
X153567850Y-124907981D01*
X153545672Y-124918470D01*
X153522573Y-124926735D01*
X153498774Y-124932696D01*
X153474506Y-124936296D01*
X153450002Y-124937500D01*
X152549998Y-124937500D01*
X152525494Y-124936296D01*
X152501226Y-124932696D01*
X152477427Y-124926735D01*
X152454328Y-124918470D01*
X152432150Y-124907981D01*
X152411107Y-124895368D01*
X152391401Y-124880753D01*
X152373223Y-124864277D01*
X152356747Y-124846099D01*
X152342132Y-124826393D01*
X152329519Y-124805350D01*
X152319030Y-124783172D01*
X152310765Y-124760073D01*
X152304804Y-124736274D01*
X152301204Y-124712006D01*
X152300000Y-124687502D01*
X152300000Y-124162498D01*
X152301204Y-124137994D01*
X152304804Y-124113726D01*
X152310765Y-124089927D01*
X152319030Y-124066828D01*
X152329519Y-124044650D01*
X152342132Y-124023607D01*
X152356747Y-124003901D01*
X152373223Y-123985723D01*
X152391401Y-123969247D01*
X152411107Y-123954632D01*
X152432150Y-123942019D01*
X152454328Y-123931530D01*
X152477427Y-123923265D01*
X152501226Y-123917304D01*
X152525494Y-123913704D01*
X152549998Y-123912500D01*
X153450002Y-123912500D01*
X153474506Y-123913704D01*
G37*
%TD*%
%TO.C,R26*%
G36*
X151224506Y-123913704D02*
G01*
X151248774Y-123917304D01*
X151272573Y-123923265D01*
X151295672Y-123931530D01*
X151317850Y-123942019D01*
X151338893Y-123954632D01*
X151358599Y-123969247D01*
X151376777Y-123985723D01*
X151393253Y-124003901D01*
X151407868Y-124023607D01*
X151420481Y-124044650D01*
X151430970Y-124066828D01*
X151439235Y-124089927D01*
X151445196Y-124113726D01*
X151448796Y-124137994D01*
X151450000Y-124162498D01*
X151450000Y-124687502D01*
X151448796Y-124712006D01*
X151445196Y-124736274D01*
X151439235Y-124760073D01*
X151430970Y-124783172D01*
X151420481Y-124805350D01*
X151407868Y-124826393D01*
X151393253Y-124846099D01*
X151376777Y-124864277D01*
X151358599Y-124880753D01*
X151338893Y-124895368D01*
X151317850Y-124907981D01*
X151295672Y-124918470D01*
X151272573Y-124926735D01*
X151248774Y-124932696D01*
X151224506Y-124936296D01*
X151200002Y-124937500D01*
X150299998Y-124937500D01*
X150275494Y-124936296D01*
X150251226Y-124932696D01*
X150227427Y-124926735D01*
X150204328Y-124918470D01*
X150182150Y-124907981D01*
X150161107Y-124895368D01*
X150141401Y-124880753D01*
X150123223Y-124864277D01*
X150106747Y-124846099D01*
X150092132Y-124826393D01*
X150079519Y-124805350D01*
X150069030Y-124783172D01*
X150060765Y-124760073D01*
X150054804Y-124736274D01*
X150051204Y-124712006D01*
X150050000Y-124687502D01*
X150050000Y-124162498D01*
X150051204Y-124137994D01*
X150054804Y-124113726D01*
X150060765Y-124089927D01*
X150069030Y-124066828D01*
X150079519Y-124044650D01*
X150092132Y-124023607D01*
X150106747Y-124003901D01*
X150123223Y-123985723D01*
X150141401Y-123969247D01*
X150161107Y-123954632D01*
X150182150Y-123942019D01*
X150204328Y-123931530D01*
X150227427Y-123923265D01*
X150251226Y-123917304D01*
X150275494Y-123913704D01*
X150299998Y-123912500D01*
X151200002Y-123912500D01*
X151224506Y-123913704D01*
G37*
G36*
X151224506Y-125738704D02*
G01*
X151248774Y-125742304D01*
X151272573Y-125748265D01*
X151295672Y-125756530D01*
X151317850Y-125767019D01*
X151338893Y-125779632D01*
X151358599Y-125794247D01*
X151376777Y-125810723D01*
X151393253Y-125828901D01*
X151407868Y-125848607D01*
X151420481Y-125869650D01*
X151430970Y-125891828D01*
X151439235Y-125914927D01*
X151445196Y-125938726D01*
X151448796Y-125962994D01*
X151450000Y-125987498D01*
X151450000Y-126512502D01*
X151448796Y-126537006D01*
X151445196Y-126561274D01*
X151439235Y-126585073D01*
X151430970Y-126608172D01*
X151420481Y-126630350D01*
X151407868Y-126651393D01*
X151393253Y-126671099D01*
X151376777Y-126689277D01*
X151358599Y-126705753D01*
X151338893Y-126720368D01*
X151317850Y-126732981D01*
X151295672Y-126743470D01*
X151272573Y-126751735D01*
X151248774Y-126757696D01*
X151224506Y-126761296D01*
X151200002Y-126762500D01*
X150299998Y-126762500D01*
X150275494Y-126761296D01*
X150251226Y-126757696D01*
X150227427Y-126751735D01*
X150204328Y-126743470D01*
X150182150Y-126732981D01*
X150161107Y-126720368D01*
X150141401Y-126705753D01*
X150123223Y-126689277D01*
X150106747Y-126671099D01*
X150092132Y-126651393D01*
X150079519Y-126630350D01*
X150069030Y-126608172D01*
X150060765Y-126585073D01*
X150054804Y-126561274D01*
X150051204Y-126537006D01*
X150050000Y-126512502D01*
X150050000Y-125987498D01*
X150051204Y-125962994D01*
X150054804Y-125938726D01*
X150060765Y-125914927D01*
X150069030Y-125891828D01*
X150079519Y-125869650D01*
X150092132Y-125848607D01*
X150106747Y-125828901D01*
X150123223Y-125810723D01*
X150141401Y-125794247D01*
X150161107Y-125779632D01*
X150182150Y-125767019D01*
X150204328Y-125756530D01*
X150227427Y-125748265D01*
X150251226Y-125742304D01*
X150275494Y-125738704D01*
X150299998Y-125737500D01*
X151200002Y-125737500D01*
X151224506Y-125738704D01*
G37*
%TD*%
%TO.C,R27*%
G36*
X148974506Y-125738704D02*
G01*
X148998774Y-125742304D01*
X149022573Y-125748265D01*
X149045672Y-125756530D01*
X149067850Y-125767019D01*
X149088893Y-125779632D01*
X149108599Y-125794247D01*
X149126777Y-125810723D01*
X149143253Y-125828901D01*
X149157868Y-125848607D01*
X149170481Y-125869650D01*
X149180970Y-125891828D01*
X149189235Y-125914927D01*
X149195196Y-125938726D01*
X149198796Y-125962994D01*
X149200000Y-125987498D01*
X149200000Y-126512502D01*
X149198796Y-126537006D01*
X149195196Y-126561274D01*
X149189235Y-126585073D01*
X149180970Y-126608172D01*
X149170481Y-126630350D01*
X149157868Y-126651393D01*
X149143253Y-126671099D01*
X149126777Y-126689277D01*
X149108599Y-126705753D01*
X149088893Y-126720368D01*
X149067850Y-126732981D01*
X149045672Y-126743470D01*
X149022573Y-126751735D01*
X148998774Y-126757696D01*
X148974506Y-126761296D01*
X148950002Y-126762500D01*
X148049998Y-126762500D01*
X148025494Y-126761296D01*
X148001226Y-126757696D01*
X147977427Y-126751735D01*
X147954328Y-126743470D01*
X147932150Y-126732981D01*
X147911107Y-126720368D01*
X147891401Y-126705753D01*
X147873223Y-126689277D01*
X147856747Y-126671099D01*
X147842132Y-126651393D01*
X147829519Y-126630350D01*
X147819030Y-126608172D01*
X147810765Y-126585073D01*
X147804804Y-126561274D01*
X147801204Y-126537006D01*
X147800000Y-126512502D01*
X147800000Y-125987498D01*
X147801204Y-125962994D01*
X147804804Y-125938726D01*
X147810765Y-125914927D01*
X147819030Y-125891828D01*
X147829519Y-125869650D01*
X147842132Y-125848607D01*
X147856747Y-125828901D01*
X147873223Y-125810723D01*
X147891401Y-125794247D01*
X147911107Y-125779632D01*
X147932150Y-125767019D01*
X147954328Y-125756530D01*
X147977427Y-125748265D01*
X148001226Y-125742304D01*
X148025494Y-125738704D01*
X148049998Y-125737500D01*
X148950002Y-125737500D01*
X148974506Y-125738704D01*
G37*
G36*
X148974506Y-123913704D02*
G01*
X148998774Y-123917304D01*
X149022573Y-123923265D01*
X149045672Y-123931530D01*
X149067850Y-123942019D01*
X149088893Y-123954632D01*
X149108599Y-123969247D01*
X149126777Y-123985723D01*
X149143253Y-124003901D01*
X149157868Y-124023607D01*
X149170481Y-124044650D01*
X149180970Y-124066828D01*
X149189235Y-124089927D01*
X149195196Y-124113726D01*
X149198796Y-124137994D01*
X149200000Y-124162498D01*
X149200000Y-124687502D01*
X149198796Y-124712006D01*
X149195196Y-124736274D01*
X149189235Y-124760073D01*
X149180970Y-124783172D01*
X149170481Y-124805350D01*
X149157868Y-124826393D01*
X149143253Y-124846099D01*
X149126777Y-124864277D01*
X149108599Y-124880753D01*
X149088893Y-124895368D01*
X149067850Y-124907981D01*
X149045672Y-124918470D01*
X149022573Y-124926735D01*
X148998774Y-124932696D01*
X148974506Y-124936296D01*
X148950002Y-124937500D01*
X148049998Y-124937500D01*
X148025494Y-124936296D01*
X148001226Y-124932696D01*
X147977427Y-124926735D01*
X147954328Y-124918470D01*
X147932150Y-124907981D01*
X147911107Y-124895368D01*
X147891401Y-124880753D01*
X147873223Y-124864277D01*
X147856747Y-124846099D01*
X147842132Y-124826393D01*
X147829519Y-124805350D01*
X147819030Y-124783172D01*
X147810765Y-124760073D01*
X147804804Y-124736274D01*
X147801204Y-124712006D01*
X147800000Y-124687502D01*
X147800000Y-124162498D01*
X147801204Y-124137994D01*
X147804804Y-124113726D01*
X147810765Y-124089927D01*
X147819030Y-124066828D01*
X147829519Y-124044650D01*
X147842132Y-124023607D01*
X147856747Y-124003901D01*
X147873223Y-123985723D01*
X147891401Y-123969247D01*
X147911107Y-123954632D01*
X147932150Y-123942019D01*
X147954328Y-123931530D01*
X147977427Y-123923265D01*
X148001226Y-123917304D01*
X148025494Y-123913704D01*
X148049998Y-123912500D01*
X148950002Y-123912500D01*
X148974506Y-123913704D01*
G37*
%TD*%
D20*
%TO.C,H1*%
X139052378Y-79054124D03*
%TD*%
%TO.C,H2*%
X161677324Y-79054124D03*
%TD*%
%TO.C,H3*%
X177675578Y-95052378D03*
%TD*%
%TO.C,H4*%
X177675578Y-117677324D03*
%TD*%
%TO.C,H5*%
X139052378Y-133675578D03*
%TD*%
%TO.C,H6*%
X161677324Y-133675578D03*
%TD*%
%TO.C,H7*%
X123054124Y-117677324D03*
%TD*%
%TO.C,H8*%
X123054124Y-95052378D03*
%TD*%
D13*
%TO.C,J1*%
X108800000Y-86820000D03*
D12*
X108800000Y-89360000D03*
X108800000Y-91900000D03*
X108800000Y-94440000D03*
X108800000Y-96980000D03*
X108800000Y-99520000D03*
X108800000Y-102060000D03*
X108800000Y-104600000D03*
X108800000Y-107140000D03*
X108800000Y-109680000D03*
X108800000Y-112220000D03*
X108800000Y-114760000D03*
X108800000Y-117300000D03*
X108800000Y-119840000D03*
X108800000Y-122380000D03*
X108800000Y-124920000D03*
X108800000Y-127460000D03*
X108800000Y-130000000D03*
X108800000Y-132540000D03*
%TD*%
D13*
%TO.C,J3*%
X197600000Y-97860000D03*
D12*
X197600000Y-100400000D03*
X197600000Y-102940000D03*
X197600000Y-105480000D03*
X197600000Y-108020000D03*
X197600000Y-110560000D03*
X197600000Y-113100000D03*
X197600000Y-115640000D03*
X197600000Y-118180000D03*
%TD*%
D21*
%TO.C,TP6*%
X123366000Y-108966000D03*
%TD*%
%TO.C,TP8*%
X129648000Y-134934000D03*
%TD*%
%TO.C,TP9*%
X123274000Y-104394000D03*
%TD*%
%TO.C,TP10*%
X146812000Y-81701000D03*
%TD*%
%TO.C,TP12*%
X149350000Y-81691000D03*
%TD*%
%TO.C,TP15*%
X151844000Y-81695000D03*
%TD*%
%TO.C,TP16*%
X123323000Y-106680000D03*
%TD*%
%TO.C,TP20*%
X170760000Y-88300000D03*
%TD*%
%TO.C,TP21*%
X171196000Y-125476000D03*
%TD*%
%TO.C,TP22*%
X148590000Y-129032000D03*
%TD*%
%TO.C,TP23*%
X175138000Y-108966000D03*
%TD*%
%TO.C,TP25*%
X175055000Y-104524000D03*
%TD*%
%TO.C,TP26*%
X174244000Y-122428000D03*
%TD*%
%TO.C,TP27*%
X153162000Y-129032000D03*
%TD*%
%TO.C,TP28*%
X172720000Y-123952000D03*
%TD*%
%TO.C,TP29*%
X167250000Y-85300000D03*
%TD*%
%TO.C,TP30*%
X150876000Y-129032000D03*
%TD*%
%TO.C,TP31*%
X174998000Y-106864000D03*
%TD*%
%TO.C,TP7*%
X125846000Y-123925000D03*
%TD*%
%TO.C,TP14*%
X128658000Y-124182000D03*
%TD*%
%TO.C,TP24*%
X169075000Y-86791000D03*
%TD*%
D11*
%TO.C,J6*%
G36*
X136654653Y-126390275D02*
G01*
X136720662Y-126400067D01*
X136785394Y-126416282D01*
X136848225Y-126438763D01*
X136908550Y-126467294D01*
X136965788Y-126501601D01*
X137019388Y-126541354D01*
X137068833Y-126586168D01*
X137113647Y-126635613D01*
X137153400Y-126689213D01*
X137187707Y-126746451D01*
X137216238Y-126806776D01*
X137238719Y-126869607D01*
X137254934Y-126934339D01*
X137264726Y-127000348D01*
X137268000Y-127067000D01*
X137268000Y-129857000D01*
X137264726Y-129923652D01*
X137254934Y-129989661D01*
X137238719Y-130054393D01*
X137216238Y-130117224D01*
X137187707Y-130177549D01*
X137153400Y-130234787D01*
X137113647Y-130288387D01*
X137068833Y-130337832D01*
X137019388Y-130382646D01*
X136965788Y-130422399D01*
X136908550Y-130456706D01*
X136848225Y-130485237D01*
X136785394Y-130507718D01*
X136720662Y-130523933D01*
X136654653Y-130533725D01*
X136588001Y-130536999D01*
X136587999Y-130536999D01*
X136521347Y-130533725D01*
X136455338Y-130523933D01*
X136390606Y-130507718D01*
X136327775Y-130485237D01*
X136267450Y-130456706D01*
X136210212Y-130422399D01*
X136156612Y-130382646D01*
X136107167Y-130337832D01*
X136062353Y-130288387D01*
X136022600Y-130234787D01*
X135988293Y-130177549D01*
X135959762Y-130117224D01*
X135937281Y-130054393D01*
X135921066Y-129989661D01*
X135911274Y-129923652D01*
X135908000Y-129857000D01*
X135908000Y-127067000D01*
X135911274Y-127000348D01*
X135921066Y-126934339D01*
X135937281Y-126869607D01*
X135959762Y-126806776D01*
X135988293Y-126746451D01*
X136022600Y-126689213D01*
X136062353Y-126635613D01*
X136107167Y-126586168D01*
X136156612Y-126541354D01*
X136210212Y-126501601D01*
X136267450Y-126467294D01*
X136327775Y-126438763D01*
X136390606Y-126416282D01*
X136455338Y-126400067D01*
X136521347Y-126390275D01*
X136587999Y-126387001D01*
X136588001Y-126387001D01*
X136654653Y-126390275D01*
G37*
G36*
X146434653Y-126390275D02*
G01*
X146500662Y-126400067D01*
X146565394Y-126416282D01*
X146628225Y-126438763D01*
X146688550Y-126467294D01*
X146745788Y-126501601D01*
X146799388Y-126541354D01*
X146848833Y-126586168D01*
X146893647Y-126635613D01*
X146933400Y-126689213D01*
X146967707Y-126746451D01*
X146996238Y-126806776D01*
X147018719Y-126869607D01*
X147034934Y-126934339D01*
X147044726Y-127000348D01*
X147048000Y-127067000D01*
X147048000Y-129857000D01*
X147044726Y-129923652D01*
X147034934Y-129989661D01*
X147018719Y-130054393D01*
X146996238Y-130117224D01*
X146967707Y-130177549D01*
X146933400Y-130234787D01*
X146893647Y-130288387D01*
X146848833Y-130337832D01*
X146799388Y-130382646D01*
X146745788Y-130422399D01*
X146688550Y-130456706D01*
X146628225Y-130485237D01*
X146565394Y-130507718D01*
X146500662Y-130523933D01*
X146434653Y-130533725D01*
X146368001Y-130536999D01*
X146367999Y-130536999D01*
X146301347Y-130533725D01*
X146235338Y-130523933D01*
X146170606Y-130507718D01*
X146107775Y-130485237D01*
X146047450Y-130456706D01*
X145990212Y-130422399D01*
X145936612Y-130382646D01*
X145887167Y-130337832D01*
X145842353Y-130288387D01*
X145802600Y-130234787D01*
X145768293Y-130177549D01*
X145739762Y-130117224D01*
X145717281Y-130054393D01*
X145701066Y-129989661D01*
X145691274Y-129923652D01*
X145688000Y-129857000D01*
X145688000Y-127067000D01*
X145691274Y-127000348D01*
X145701066Y-126934339D01*
X145717281Y-126869607D01*
X145739762Y-126806776D01*
X145768293Y-126746451D01*
X145802600Y-126689213D01*
X145842353Y-126635613D01*
X145887167Y-126586168D01*
X145936612Y-126541354D01*
X145990212Y-126501601D01*
X146047450Y-126467294D01*
X146107775Y-126438763D01*
X146170606Y-126416282D01*
X146235338Y-126400067D01*
X146301347Y-126390275D01*
X146367999Y-126387001D01*
X146368001Y-126387001D01*
X146434653Y-126390275D01*
G37*
G36*
X142939652Y-123840273D02*
G01*
X143005661Y-123850065D01*
X143070394Y-123866280D01*
X143133225Y-123888761D01*
X143193550Y-123917293D01*
X143250788Y-123951600D01*
X143304387Y-123991352D01*
X143353833Y-124036166D01*
X143398647Y-124085612D01*
X143438399Y-124139211D01*
X143472706Y-124196449D01*
X143501238Y-124256774D01*
X143523719Y-124319605D01*
X143539934Y-124384338D01*
X143549726Y-124450347D01*
X143553000Y-124516999D01*
X143553000Y-124517001D01*
X143549726Y-124583653D01*
X143539934Y-124649662D01*
X143523719Y-124714395D01*
X143501238Y-124777226D01*
X143472706Y-124837551D01*
X143438399Y-124894789D01*
X143398647Y-124948388D01*
X143353833Y-124997834D01*
X143304387Y-125042648D01*
X143250788Y-125082400D01*
X143193550Y-125116707D01*
X143133225Y-125145239D01*
X143070394Y-125167720D01*
X143005661Y-125183935D01*
X142939652Y-125193727D01*
X142873000Y-125197001D01*
X140083000Y-125197001D01*
X140016348Y-125193727D01*
X139950339Y-125183935D01*
X139885606Y-125167720D01*
X139822775Y-125145239D01*
X139762450Y-125116707D01*
X139705212Y-125082400D01*
X139651613Y-125042648D01*
X139602167Y-124997834D01*
X139557353Y-124948388D01*
X139517601Y-124894789D01*
X139483294Y-124837551D01*
X139454762Y-124777226D01*
X139432281Y-124714395D01*
X139416066Y-124649662D01*
X139406274Y-124583653D01*
X139403000Y-124517001D01*
X139403000Y-124516999D01*
X139406274Y-124450347D01*
X139416066Y-124384338D01*
X139432281Y-124319605D01*
X139454762Y-124256774D01*
X139483294Y-124196449D01*
X139517601Y-124139211D01*
X139557353Y-124085612D01*
X139602167Y-124036166D01*
X139651613Y-123991352D01*
X139705212Y-123951600D01*
X139762450Y-123917293D01*
X139822775Y-123888761D01*
X139885606Y-123866280D01*
X139950339Y-123850065D01*
X140016348Y-123840273D01*
X140083000Y-123836999D01*
X142873000Y-123836999D01*
X142939652Y-123840273D01*
G37*
%TD*%
D21*
%TO.C,TP5*%
X129450000Y-88175000D03*
%TD*%
%TO.C,TP11*%
X132080000Y-84074000D03*
%TD*%
%TO.C,TP13*%
X131853000Y-81158000D03*
%TD*%
M02*
