%TF.GenerationSoftware,KiCad,Pcbnew,(5.1.5)-3*%
%TF.CreationDate,2021-01-12T11:59:14+01:00*%
%TF.ProjectId,smart_object_pcb,736d6172-745f-46f6-926a-6563745f7063,rev?*%
%TF.SameCoordinates,Original*%
%TF.FileFunction,Soldermask,Bot*%
%TF.FilePolarity,Negative*%
%FSLAX46Y46*%
G04 Gerber Fmt 4.6, Leading zero omitted, Abs format (unit mm)*
G04 Created by KiCad (PCBNEW (5.1.5)-3) date 2021-01-12 11:59:14*
%MOMM*%
%LPD*%
G04 APERTURE LIST*
%ADD10C,4.240000*%
%ADD11C,0.100000*%
%ADD12R,1.000000X1.500000*%
%ADD13O,1.700000X1.700000*%
%ADD14R,1.700000X1.700000*%
%ADD15R,1.910000X1.235000*%
%ADD16R,7.000000X8.330000*%
%ADD17R,2.160000X1.070000*%
%ADD18C,1.700000*%
%ADD19C,2.100000*%
G04 APERTURE END LIST*
D10*
%TO.C,J7*%
X146560000Y-62724500D03*
X156590000Y-62724500D03*
X151575000Y-66684500D03*
%TD*%
D11*
%TO.C,J5*%
G36*
X156974653Y-126390275D02*
G01*
X157040662Y-126400067D01*
X157105394Y-126416282D01*
X157168225Y-126438763D01*
X157228550Y-126467294D01*
X157285788Y-126501601D01*
X157339388Y-126541354D01*
X157388833Y-126586168D01*
X157433647Y-126635613D01*
X157473400Y-126689213D01*
X157507707Y-126746451D01*
X157536238Y-126806776D01*
X157558719Y-126869607D01*
X157574934Y-126934339D01*
X157584726Y-127000348D01*
X157588000Y-127067000D01*
X157588000Y-129857000D01*
X157584726Y-129923652D01*
X157574934Y-129989661D01*
X157558719Y-130054393D01*
X157536238Y-130117224D01*
X157507707Y-130177549D01*
X157473400Y-130234787D01*
X157433647Y-130288387D01*
X157388833Y-130337832D01*
X157339388Y-130382646D01*
X157285788Y-130422399D01*
X157228550Y-130456706D01*
X157168225Y-130485237D01*
X157105394Y-130507718D01*
X157040662Y-130523933D01*
X156974653Y-130533725D01*
X156908001Y-130536999D01*
X156907999Y-130536999D01*
X156841347Y-130533725D01*
X156775338Y-130523933D01*
X156710606Y-130507718D01*
X156647775Y-130485237D01*
X156587450Y-130456706D01*
X156530212Y-130422399D01*
X156476612Y-130382646D01*
X156427167Y-130337832D01*
X156382353Y-130288387D01*
X156342600Y-130234787D01*
X156308293Y-130177549D01*
X156279762Y-130117224D01*
X156257281Y-130054393D01*
X156241066Y-129989661D01*
X156231274Y-129923652D01*
X156228000Y-129857000D01*
X156228000Y-127067000D01*
X156231274Y-127000348D01*
X156241066Y-126934339D01*
X156257281Y-126869607D01*
X156279762Y-126806776D01*
X156308293Y-126746451D01*
X156342600Y-126689213D01*
X156382353Y-126635613D01*
X156427167Y-126586168D01*
X156476612Y-126541354D01*
X156530212Y-126501601D01*
X156587450Y-126467294D01*
X156647775Y-126438763D01*
X156710606Y-126416282D01*
X156775338Y-126400067D01*
X156841347Y-126390275D01*
X156907999Y-126387001D01*
X156908001Y-126387001D01*
X156974653Y-126390275D01*
G37*
G36*
X166754653Y-126390275D02*
G01*
X166820662Y-126400067D01*
X166885394Y-126416282D01*
X166948225Y-126438763D01*
X167008550Y-126467294D01*
X167065788Y-126501601D01*
X167119388Y-126541354D01*
X167168833Y-126586168D01*
X167213647Y-126635613D01*
X167253400Y-126689213D01*
X167287707Y-126746451D01*
X167316238Y-126806776D01*
X167338719Y-126869607D01*
X167354934Y-126934339D01*
X167364726Y-127000348D01*
X167368000Y-127067000D01*
X167368000Y-129857000D01*
X167364726Y-129923652D01*
X167354934Y-129989661D01*
X167338719Y-130054393D01*
X167316238Y-130117224D01*
X167287707Y-130177549D01*
X167253400Y-130234787D01*
X167213647Y-130288387D01*
X167168833Y-130337832D01*
X167119388Y-130382646D01*
X167065788Y-130422399D01*
X167008550Y-130456706D01*
X166948225Y-130485237D01*
X166885394Y-130507718D01*
X166820662Y-130523933D01*
X166754653Y-130533725D01*
X166688001Y-130536999D01*
X166687999Y-130536999D01*
X166621347Y-130533725D01*
X166555338Y-130523933D01*
X166490606Y-130507718D01*
X166427775Y-130485237D01*
X166367450Y-130456706D01*
X166310212Y-130422399D01*
X166256612Y-130382646D01*
X166207167Y-130337832D01*
X166162353Y-130288387D01*
X166122600Y-130234787D01*
X166088293Y-130177549D01*
X166059762Y-130117224D01*
X166037281Y-130054393D01*
X166021066Y-129989661D01*
X166011274Y-129923652D01*
X166008000Y-129857000D01*
X166008000Y-127067000D01*
X166011274Y-127000348D01*
X166021066Y-126934339D01*
X166037281Y-126869607D01*
X166059762Y-126806776D01*
X166088293Y-126746451D01*
X166122600Y-126689213D01*
X166162353Y-126635613D01*
X166207167Y-126586168D01*
X166256612Y-126541354D01*
X166310212Y-126501601D01*
X166367450Y-126467294D01*
X166427775Y-126438763D01*
X166490606Y-126416282D01*
X166555338Y-126400067D01*
X166621347Y-126390275D01*
X166687999Y-126387001D01*
X166688001Y-126387001D01*
X166754653Y-126390275D01*
G37*
G36*
X163259652Y-123840273D02*
G01*
X163325661Y-123850065D01*
X163390394Y-123866280D01*
X163453225Y-123888761D01*
X163513550Y-123917293D01*
X163570788Y-123951600D01*
X163624387Y-123991352D01*
X163673833Y-124036166D01*
X163718647Y-124085612D01*
X163758399Y-124139211D01*
X163792706Y-124196449D01*
X163821238Y-124256774D01*
X163843719Y-124319605D01*
X163859934Y-124384338D01*
X163869726Y-124450347D01*
X163873000Y-124516999D01*
X163873000Y-124517001D01*
X163869726Y-124583653D01*
X163859934Y-124649662D01*
X163843719Y-124714395D01*
X163821238Y-124777226D01*
X163792706Y-124837551D01*
X163758399Y-124894789D01*
X163718647Y-124948388D01*
X163673833Y-124997834D01*
X163624387Y-125042648D01*
X163570788Y-125082400D01*
X163513550Y-125116707D01*
X163453225Y-125145239D01*
X163390394Y-125167720D01*
X163325661Y-125183935D01*
X163259652Y-125193727D01*
X163193000Y-125197001D01*
X160403000Y-125197001D01*
X160336348Y-125193727D01*
X160270339Y-125183935D01*
X160205606Y-125167720D01*
X160142775Y-125145239D01*
X160082450Y-125116707D01*
X160025212Y-125082400D01*
X159971613Y-125042648D01*
X159922167Y-124997834D01*
X159877353Y-124948388D01*
X159837601Y-124894789D01*
X159803294Y-124837551D01*
X159774762Y-124777226D01*
X159752281Y-124714395D01*
X159736066Y-124649662D01*
X159726274Y-124583653D01*
X159723000Y-124517001D01*
X159723000Y-124516999D01*
X159726274Y-124450347D01*
X159736066Y-124384338D01*
X159752281Y-124319605D01*
X159774762Y-124256774D01*
X159803294Y-124196449D01*
X159837601Y-124139211D01*
X159877353Y-124085612D01*
X159922167Y-124036166D01*
X159971613Y-123991352D01*
X160025212Y-123951600D01*
X160082450Y-123917293D01*
X160142775Y-123888761D01*
X160205606Y-123866280D01*
X160270339Y-123850065D01*
X160336348Y-123840273D01*
X160403000Y-123836999D01*
X163193000Y-123836999D01*
X163259652Y-123840273D01*
G37*
%TD*%
%TO.C,JP1*%
G36*
X154074000Y-92932000D02*
G01*
X154624000Y-92932000D01*
X154624000Y-92932602D01*
X154648534Y-92932602D01*
X154697365Y-92937412D01*
X154745490Y-92946984D01*
X154792445Y-92961228D01*
X154837778Y-92980005D01*
X154881051Y-93003136D01*
X154921850Y-93030396D01*
X154959779Y-93061524D01*
X154994476Y-93096221D01*
X155025604Y-93134150D01*
X155052864Y-93174949D01*
X155075995Y-93218222D01*
X155094772Y-93263555D01*
X155109016Y-93310510D01*
X155118588Y-93358635D01*
X155123398Y-93407466D01*
X155123398Y-93432000D01*
X155124000Y-93432000D01*
X155124000Y-93932000D01*
X155123398Y-93932000D01*
X155123398Y-93956534D01*
X155118588Y-94005365D01*
X155109016Y-94053490D01*
X155094772Y-94100445D01*
X155075995Y-94145778D01*
X155052864Y-94189051D01*
X155025604Y-94229850D01*
X154994476Y-94267779D01*
X154959779Y-94302476D01*
X154921850Y-94333604D01*
X154881051Y-94360864D01*
X154837778Y-94383995D01*
X154792445Y-94402772D01*
X154745490Y-94417016D01*
X154697365Y-94426588D01*
X154648534Y-94431398D01*
X154624000Y-94431398D01*
X154624000Y-94432000D01*
X154074000Y-94432000D01*
X154074000Y-92932000D01*
G37*
D12*
X153324000Y-93682000D03*
D11*
G36*
X152024000Y-94431398D02*
G01*
X151999466Y-94431398D01*
X151950635Y-94426588D01*
X151902510Y-94417016D01*
X151855555Y-94402772D01*
X151810222Y-94383995D01*
X151766949Y-94360864D01*
X151726150Y-94333604D01*
X151688221Y-94302476D01*
X151653524Y-94267779D01*
X151622396Y-94229850D01*
X151595136Y-94189051D01*
X151572005Y-94145778D01*
X151553228Y-94100445D01*
X151538984Y-94053490D01*
X151529412Y-94005365D01*
X151524602Y-93956534D01*
X151524602Y-93932000D01*
X151524000Y-93932000D01*
X151524000Y-93432000D01*
X151524602Y-93432000D01*
X151524602Y-93407466D01*
X151529412Y-93358635D01*
X151538984Y-93310510D01*
X151553228Y-93263555D01*
X151572005Y-93218222D01*
X151595136Y-93174949D01*
X151622396Y-93134150D01*
X151653524Y-93096221D01*
X151688221Y-93061524D01*
X151726150Y-93030396D01*
X151766949Y-93003136D01*
X151810222Y-92980005D01*
X151855555Y-92961228D01*
X151902510Y-92946984D01*
X151950635Y-92937412D01*
X151999466Y-92932602D01*
X152024000Y-92932602D01*
X152024000Y-92932000D01*
X152574000Y-92932000D01*
X152574000Y-94432000D01*
X152024000Y-94432000D01*
X152024000Y-94431398D01*
G37*
%TD*%
D13*
%TO.C,J2*%
X132400000Y-86800000D03*
X132400000Y-89340000D03*
X132400000Y-91880000D03*
X132400000Y-94420000D03*
X132400000Y-96960000D03*
X132400000Y-99500000D03*
X132400000Y-102040000D03*
X132400000Y-104580000D03*
X132400000Y-107120000D03*
X132400000Y-109660000D03*
X132400000Y-112200000D03*
X132400000Y-114740000D03*
X132400000Y-117280000D03*
X132400000Y-119820000D03*
X132400000Y-122360000D03*
X132400000Y-124900000D03*
X132400000Y-127440000D03*
X132400000Y-129980000D03*
D14*
X132400000Y-132520000D03*
%TD*%
D15*
%TO.C,IC2*%
X129588000Y-65080500D03*
X129588000Y-74645500D03*
D16*
X132133000Y-69863000D03*
D17*
X142803000Y-72403000D03*
X142803000Y-69863000D03*
X142803000Y-67323000D03*
%TD*%
D11*
%TO.C,J4*%
G36*
X183200000Y-69997918D02*
G01*
X184402082Y-71200000D01*
X183200000Y-72402082D01*
X181997918Y-71200000D01*
X183200000Y-69997918D01*
G37*
D18*
X184996051Y-72996051D02*
X184996051Y-72996051D01*
X186792102Y-74792102D02*
X186792102Y-74792102D01*
X188588154Y-76588154D02*
X188588154Y-76588154D01*
%TD*%
D19*
%TO.C,H1*%
X139052378Y-79054124D03*
%TD*%
%TO.C,H2*%
X161677324Y-79054124D03*
%TD*%
%TO.C,H3*%
X177675578Y-95052378D03*
%TD*%
%TO.C,H4*%
X177675578Y-117677324D03*
%TD*%
%TO.C,H5*%
X139052378Y-133675578D03*
%TD*%
%TO.C,H6*%
X161677324Y-133675578D03*
%TD*%
%TO.C,H7*%
X123054124Y-117677324D03*
%TD*%
%TO.C,H8*%
X123054124Y-95052378D03*
%TD*%
D14*
%TO.C,J1*%
X108800000Y-86820000D03*
D13*
X108800000Y-89360000D03*
X108800000Y-91900000D03*
X108800000Y-94440000D03*
X108800000Y-96980000D03*
X108800000Y-99520000D03*
X108800000Y-102060000D03*
X108800000Y-104600000D03*
X108800000Y-107140000D03*
X108800000Y-109680000D03*
X108800000Y-112220000D03*
X108800000Y-114760000D03*
X108800000Y-117300000D03*
X108800000Y-119840000D03*
X108800000Y-122380000D03*
X108800000Y-124920000D03*
X108800000Y-127460000D03*
X108800000Y-130000000D03*
X108800000Y-132540000D03*
%TD*%
D14*
%TO.C,J3*%
X197600000Y-97860000D03*
D13*
X197600000Y-100400000D03*
X197600000Y-102940000D03*
X197600000Y-105480000D03*
X197600000Y-108020000D03*
X197600000Y-110560000D03*
X197600000Y-113100000D03*
X197600000Y-115640000D03*
X197600000Y-118180000D03*
%TD*%
D11*
%TO.C,J6*%
G36*
X136654653Y-126390275D02*
G01*
X136720662Y-126400067D01*
X136785394Y-126416282D01*
X136848225Y-126438763D01*
X136908550Y-126467294D01*
X136965788Y-126501601D01*
X137019388Y-126541354D01*
X137068833Y-126586168D01*
X137113647Y-126635613D01*
X137153400Y-126689213D01*
X137187707Y-126746451D01*
X137216238Y-126806776D01*
X137238719Y-126869607D01*
X137254934Y-126934339D01*
X137264726Y-127000348D01*
X137268000Y-127067000D01*
X137268000Y-129857000D01*
X137264726Y-129923652D01*
X137254934Y-129989661D01*
X137238719Y-130054393D01*
X137216238Y-130117224D01*
X137187707Y-130177549D01*
X137153400Y-130234787D01*
X137113647Y-130288387D01*
X137068833Y-130337832D01*
X137019388Y-130382646D01*
X136965788Y-130422399D01*
X136908550Y-130456706D01*
X136848225Y-130485237D01*
X136785394Y-130507718D01*
X136720662Y-130523933D01*
X136654653Y-130533725D01*
X136588001Y-130536999D01*
X136587999Y-130536999D01*
X136521347Y-130533725D01*
X136455338Y-130523933D01*
X136390606Y-130507718D01*
X136327775Y-130485237D01*
X136267450Y-130456706D01*
X136210212Y-130422399D01*
X136156612Y-130382646D01*
X136107167Y-130337832D01*
X136062353Y-130288387D01*
X136022600Y-130234787D01*
X135988293Y-130177549D01*
X135959762Y-130117224D01*
X135937281Y-130054393D01*
X135921066Y-129989661D01*
X135911274Y-129923652D01*
X135908000Y-129857000D01*
X135908000Y-127067000D01*
X135911274Y-127000348D01*
X135921066Y-126934339D01*
X135937281Y-126869607D01*
X135959762Y-126806776D01*
X135988293Y-126746451D01*
X136022600Y-126689213D01*
X136062353Y-126635613D01*
X136107167Y-126586168D01*
X136156612Y-126541354D01*
X136210212Y-126501601D01*
X136267450Y-126467294D01*
X136327775Y-126438763D01*
X136390606Y-126416282D01*
X136455338Y-126400067D01*
X136521347Y-126390275D01*
X136587999Y-126387001D01*
X136588001Y-126387001D01*
X136654653Y-126390275D01*
G37*
G36*
X146434653Y-126390275D02*
G01*
X146500662Y-126400067D01*
X146565394Y-126416282D01*
X146628225Y-126438763D01*
X146688550Y-126467294D01*
X146745788Y-126501601D01*
X146799388Y-126541354D01*
X146848833Y-126586168D01*
X146893647Y-126635613D01*
X146933400Y-126689213D01*
X146967707Y-126746451D01*
X146996238Y-126806776D01*
X147018719Y-126869607D01*
X147034934Y-126934339D01*
X147044726Y-127000348D01*
X147048000Y-127067000D01*
X147048000Y-129857000D01*
X147044726Y-129923652D01*
X147034934Y-129989661D01*
X147018719Y-130054393D01*
X146996238Y-130117224D01*
X146967707Y-130177549D01*
X146933400Y-130234787D01*
X146893647Y-130288387D01*
X146848833Y-130337832D01*
X146799388Y-130382646D01*
X146745788Y-130422399D01*
X146688550Y-130456706D01*
X146628225Y-130485237D01*
X146565394Y-130507718D01*
X146500662Y-130523933D01*
X146434653Y-130533725D01*
X146368001Y-130536999D01*
X146367999Y-130536999D01*
X146301347Y-130533725D01*
X146235338Y-130523933D01*
X146170606Y-130507718D01*
X146107775Y-130485237D01*
X146047450Y-130456706D01*
X145990212Y-130422399D01*
X145936612Y-130382646D01*
X145887167Y-130337832D01*
X145842353Y-130288387D01*
X145802600Y-130234787D01*
X145768293Y-130177549D01*
X145739762Y-130117224D01*
X145717281Y-130054393D01*
X145701066Y-129989661D01*
X145691274Y-129923652D01*
X145688000Y-129857000D01*
X145688000Y-127067000D01*
X145691274Y-127000348D01*
X145701066Y-126934339D01*
X145717281Y-126869607D01*
X145739762Y-126806776D01*
X145768293Y-126746451D01*
X145802600Y-126689213D01*
X145842353Y-126635613D01*
X145887167Y-126586168D01*
X145936612Y-126541354D01*
X145990212Y-126501601D01*
X146047450Y-126467294D01*
X146107775Y-126438763D01*
X146170606Y-126416282D01*
X146235338Y-126400067D01*
X146301347Y-126390275D01*
X146367999Y-126387001D01*
X146368001Y-126387001D01*
X146434653Y-126390275D01*
G37*
G36*
X142939652Y-123840273D02*
G01*
X143005661Y-123850065D01*
X143070394Y-123866280D01*
X143133225Y-123888761D01*
X143193550Y-123917293D01*
X143250788Y-123951600D01*
X143304387Y-123991352D01*
X143353833Y-124036166D01*
X143398647Y-124085612D01*
X143438399Y-124139211D01*
X143472706Y-124196449D01*
X143501238Y-124256774D01*
X143523719Y-124319605D01*
X143539934Y-124384338D01*
X143549726Y-124450347D01*
X143553000Y-124516999D01*
X143553000Y-124517001D01*
X143549726Y-124583653D01*
X143539934Y-124649662D01*
X143523719Y-124714395D01*
X143501238Y-124777226D01*
X143472706Y-124837551D01*
X143438399Y-124894789D01*
X143398647Y-124948388D01*
X143353833Y-124997834D01*
X143304387Y-125042648D01*
X143250788Y-125082400D01*
X143193550Y-125116707D01*
X143133225Y-125145239D01*
X143070394Y-125167720D01*
X143005661Y-125183935D01*
X142939652Y-125193727D01*
X142873000Y-125197001D01*
X140083000Y-125197001D01*
X140016348Y-125193727D01*
X139950339Y-125183935D01*
X139885606Y-125167720D01*
X139822775Y-125145239D01*
X139762450Y-125116707D01*
X139705212Y-125082400D01*
X139651613Y-125042648D01*
X139602167Y-124997834D01*
X139557353Y-124948388D01*
X139517601Y-124894789D01*
X139483294Y-124837551D01*
X139454762Y-124777226D01*
X139432281Y-124714395D01*
X139416066Y-124649662D01*
X139406274Y-124583653D01*
X139403000Y-124517001D01*
X139403000Y-124516999D01*
X139406274Y-124450347D01*
X139416066Y-124384338D01*
X139432281Y-124319605D01*
X139454762Y-124256774D01*
X139483294Y-124196449D01*
X139517601Y-124139211D01*
X139557353Y-124085612D01*
X139602167Y-124036166D01*
X139651613Y-123991352D01*
X139705212Y-123951600D01*
X139762450Y-123917293D01*
X139822775Y-123888761D01*
X139885606Y-123866280D01*
X139950339Y-123850065D01*
X140016348Y-123840273D01*
X140083000Y-123836999D01*
X142873000Y-123836999D01*
X142939652Y-123840273D01*
G37*
%TD*%
M02*
